<svg height="512pt" viewBox="0 0 512 512" width="512pt" xmlns="http://www.w3.org/2000/svg"><path d="m512 256c0 141.386719-114.613281 256-256 256s-256-114.613281-256-256 114.613281-256 256-256 256 114.613281 256 256zm0 0" fill="#f40000"/><path d="m511.3125 274.785156-137.199219-137.199218-257.238281 288.113281 79.242188 79.242187c19.210937 4.605469 39.261718 7.058594 59.882812 7.058594 135.066406 0 245.691406-104.601562 255.3125-237.214844zm0 0" fill="#9b000a"/><path d="m422.308594 254.472656c0 91.507813-74.183594 165.691406-165.691406 165.691406-91.511719 0-165.695313-74.183593-165.695313-165.691406 0-91.511718 74.183594-165.695312 165.695313-165.695312 91.507812 0 165.691406 74.183594 165.691406 165.695312zm0 0" fill="#ffe470"/><path d="m150.261719 347.792969-33.386719 77.90625 95.527344-38.953125zm0 0" fill="#ffe470"/><path d="m256.617188 88.777344c91.507812 0 165.691406 74.183594 165.691406 165.691406 0 91.511719-74.183594 165.695312-165.691406 165.695312zm0 0" fill="#ebb100"/><path d="m256 295.792969c-16.320312 0-30.074219-13.535157-30.074219-30.078125v-98.085938c0-16.542968 11.714844-30.074218 30.074219-30.074218s30.074219 13.53125 30.074219 30.074218v98.085938c0 16.542968-13.753907 30.078125-30.074219 30.078125zm0 0" fill="#f40000"/><path d="m286.074219 341.3125c0 16.609375-13.464844 30.078125-30.074219 30.078125s-30.074219-13.46875-30.074219-30.078125 13.464844-30.074219 30.074219-30.074219 30.074219 13.464844 30.074219 30.074219zm0 0" fill="#f40000"/><g fill="#9b000a"><path d="m256 311.238281c16.609375 0 30.074219 13.464844 30.074219 30.074219s-13.464844 30.078125-30.074219 30.078125zm0 0"/><path d="m256 137.550781c18.363281 0 30.074219 13.535157 30.074219 30.078125v98.085938c0 16.542968-13.753907 30.074218-30.074219 30.074218zm0 0"/></g></svg>