<svg id="Layer_1" enable-background="new 0 0 510 510" height="512" viewBox="0 0 510 510" width="512" xmlns="http://www.w3.org/2000/svg"><g><path d="m90 60h-60v450h195l15-30-15-30z" fill="#a1e2f8"/><path d="m315 420-90 30v60h60 135v-60z" fill="#7ec8e3"/><path d="m375 105 46 10 59-10-105-105-10 57.5z" fill="#cdcde3"/><path d="m90 0v450h195l10-211-10-239z" fill="#fbf4f4"/><path d="m480 105h-105v-105h-90v450h195z" fill="#e9e4f0"/><path d="m283.953 323.128 1.047-.928 10-95.532-10-76.668h-135v240z" fill="#c9e568"/><path d="m285 150v172.2l135 21.8v-194z" fill="#85c782"/><g><g><path d="m210 209h30v30h-30z" fill="#e07167"/></g></g><path d="m320.96 372.3 43.239 17.7h55.801v-46l-74.999-74.999-.001-.001-61.047 54.128z" fill="#373c41"/><g><path d="m150 75h120v30h-120z" fill="#e9e4f0"/></g><g><path d="m300 75h30v30h-30z" fill="#cdcde3"/></g><path d="m283.953 323.128c-9.998-8.331-19.783-16.485-28.95-24.126l-.003-.002-105 91h135l10-33-10-33c-.349-.29-.699-.582-1.047-.872z" fill="#5a5f64"/><path d="m285 324v66h79.199c-22.236-18.531-51.479-42.9-79.199-66z" fill="#4b5055"/></g></svg>