<svg id="Capa_1" enable-background="new 0 0 512 512" viewBox="0 0 512 512" xmlns="http://www.w3.org/2000/svg" xmlns:xlink="http://www.w3.org/1999/xlink"><linearGradient id="SVGID_1_" gradientUnits="userSpaceOnUse" x1="353.933" x2="439.924" y1="104.19" y2="104.19"><stop offset="0" stop-color="#ffa1ae"/><stop offset="1" stop-color="#ff4565"/></linearGradient><linearGradient id="lg1"><stop offset="0" stop-color="#fe0364" stop-opacity="0"/><stop offset=".2343" stop-color="#f90362" stop-opacity=".234"/><stop offset=".5173" stop-color="#ea035b" stop-opacity=".517"/><stop offset=".8243" stop-color="#d20250" stop-opacity=".824"/><stop offset="1" stop-color="#c00148"/></linearGradient><linearGradient id="SVGID_00000006708227598680310580000004556705008125537938_" gradientUnits="userSpaceOnUse" x1="411.891" x2="383.197" xlink:href="#lg1" y1="78.329" y2="120.526"/><linearGradient id="SVGID_00000035498008449911824110000014788491314395054483_" gradientUnits="userSpaceOnUse" x1="408.541" x2="440.253" xlink:href="#lg1" y1="104.19" y2="104.19"/><linearGradient id="SVGID_00000134211040280196526640000017149306744295814838_" gradientUnits="userSpaceOnUse" x1="110.144" x2="332.833" y1="188.412" y2="411.101"><stop offset="0" stop-color="#f5fbff"/><stop offset="1" stop-color="#dbd5ef"/></linearGradient><linearGradient id="lg2"><stop offset="0" stop-color="#dbd5ef" stop-opacity="0"/><stop offset=".2853" stop-color="#d9d2ee" stop-opacity=".285"/><stop offset=".4739" stop-color="#d4c9e9" stop-opacity=".474"/><stop offset=".6346" stop-color="#cbbae2" stop-opacity=".635"/><stop offset=".7795" stop-color="#bfa5d7" stop-opacity=".78"/><stop offset=".9126" stop-color="#af8aca" stop-opacity=".913"/><stop offset="1" stop-color="#a274bf"/></linearGradient><linearGradient id="SVGID_00000036228453102662261970000002300429844927952023_" gradientUnits="userSpaceOnUse" x1="256" x2="256" xlink:href="#lg2" y1="388.992" y2="483.657"/><linearGradient id="SVGID_00000031185321202125975980000005511810886612107680_" gradientUnits="userSpaceOnUse" x1="231.431" x2="185.284" xlink:href="#lg2" y1="223.326" y2="155.259"/><linearGradient id="SVGID_00000057845879312689724880000011625626881657639066_" gradientTransform="matrix(-1 0 0 1 512 0)" gradientUnits="userSpaceOnUse" x1="231.431" x2="185.284" xlink:href="#lg2" y1="223.326" y2="155.259"/><linearGradient id="SVGID_00000066513682464301996350000000377417603297412992_" gradientUnits="userSpaceOnUse" x1="315.874" x2="447.541" xlink:href="#lg2" y1="291.828" y2="291.828"/><linearGradient id="lg3"><stop offset="0" stop-color="#b3dafe"/><stop offset="1" stop-color="#0182fc"/></linearGradient><linearGradient id="SVGID_00000147899792186941648080000004343805117502231696_" gradientUnits="userSpaceOnUse" x1="215.927" x2="268.996" xlink:href="#lg3" y1="35.773" y2="291.891"/><linearGradient id="lg4"><stop offset="0" stop-color="#314dc9" stop-opacity="0"/><stop offset=".2761" stop-color="#304bc4" stop-opacity=".276"/><stop offset=".5628" stop-color="#2b45b8" stop-opacity=".563"/><stop offset=".8535" stop-color="#243ba3" stop-opacity=".854"/><stop offset="1" stop-color="#1f3596"/></linearGradient><linearGradient id="SVGID_00000049194850996707951450000011114512605784578993_" gradientUnits="userSpaceOnUse" x1="256" x2="256" xlink:href="#lg4" y1="190.943" y2="30.904"/><linearGradient id="SVGID_00000106859816869225913550000008016767894318742699_" gradientUnits="userSpaceOnUse" x1="443.186" x2="501.336" xlink:href="#lg4" y1="208.61" y2="266.759"/><linearGradient id="SVGID_00000088105937288193056490000004013237575995199626_" gradientTransform="matrix(-1 0 0 1 830.068 0)" gradientUnits="userSpaceOnUse" x1="761.254" x2="819.403" xlink:href="#lg4" y1="208.61" y2="266.759"/><linearGradient id="SVGID_00000183219045508755596240000014225034905461728402_" gradientUnits="userSpaceOnUse" x1="185.239" x2="242.256" xlink:href="#lg3" y1="244.243" y2="301.26"/><linearGradient id="SVGID_00000149348280967688073150000002303032069846912903_" gradientUnits="userSpaceOnUse" x1="206.167" x2="206.167" xlink:href="#lg4" y1="247.82" y2="221.544"/><linearGradient id="SVGID_00000000913362763665254260000004154377231636641416_" gradientUnits="userSpaceOnUse" x1="193.327" x2="166.147" xlink:href="#lg4" y1="265.171" y2="265.171"/><linearGradient id="SVGID_00000021834782198488789480000006376914778435317911_" gradientUnits="userSpaceOnUse" x1="284.905" x2="341.921" xlink:href="#lg3" y1="244.243" y2="301.26"/><linearGradient id="SVGID_00000057854552152925129030000004792688139539360148_" gradientUnits="userSpaceOnUse" x1="305.833" x2="305.833" xlink:href="#lg4" y1="247.82" y2="221.544"/><linearGradient id="SVGID_00000052807993706587330860000015048426184851385746_" gradientUnits="userSpaceOnUse" x1="292.992" x2="265.812" xlink:href="#lg4" y1="265.171" y2="265.171"/><linearGradient id="SVGID_00000147914289300384183250000015129583685606855358_" gradientUnits="userSpaceOnUse" x1="185.239" x2="242.256" xlink:href="#lg3" y1="342.206" y2="399.223"/><linearGradient id="SVGID_00000094608317299575480050000010240654054378883512_" gradientUnits="userSpaceOnUse" x1="206.167" x2="206.167" xlink:href="#lg4" y1="345.784" y2="319.508"/><linearGradient id="SVGID_00000016051392670707075550000017052653166819249051_" gradientUnits="userSpaceOnUse" x1="193.327" x2="166.147" xlink:href="#lg4" y1="363.135" y2="363.135"/><linearGradient id="SVGID_00000173127683932099722250000005186169001475255452_" gradientUnits="userSpaceOnUse" x1="284.905" x2="341.921" xlink:href="#lg3" y1="342.206" y2="399.223"/><linearGradient id="SVGID_00000065784447304982003070000012189697435473744790_" gradientUnits="userSpaceOnUse" x1="305.833" x2="305.833" xlink:href="#lg4" y1="345.784" y2="319.508"/><linearGradient id="SVGID_00000101802952819121483100000009182246650635714716_" gradientUnits="userSpaceOnUse" x1="292.992" x2="265.812" xlink:href="#lg4" y1="363.135" y2="363.135"/><g><g><path d="m439.306 174.283h-96.14v-127.138c0-7.206 5.842-13.047 13.047-13.047h70.045c7.206 0 13.047 5.842 13.047 13.047v127.138z" fill="url(#SVGID_1_)"/><path d="m439.306 174.283h-96.14v-127.138c0-7.206 5.842-13.047 13.047-13.047h70.045c7.206 0 13.047 5.842 13.047 13.047v127.138z" fill="url(#SVGID_00000006708227598680310580000004556705008125537938_)"/><path d="m439.307 47.145v127.134h-59.221v-140.178h46.177c7.197 0 13.044 5.836 13.044 13.044z" fill="url(#SVGID_00000035498008449911824110000014788491314395054483_)"/></g><g><path d="m442.075 204.978v248.434c0 13.526-10.965 24.491-24.491 24.491h-323.168c-13.526 0-24.491-10.965-24.491-24.491v-248.434l134.056-99.225h104.038z" fill="url(#SVGID_00000134211040280196526640000017149306744295814838_)"/><path d="m69.925 314.156v139.256c0 13.526 10.965 24.491 24.491 24.491h323.168c13.526 0 24.491-10.965 24.491-24.491v-139.256z" fill="url(#SVGID_00000036228453102662261970000002300429844927952023_)"/><path d="m442.079 204.978v109.175h-372.158v-109.175l134.065-99.227h104.028z" fill="url(#SVGID_00000031185321202125975980000005511810886612107680_)"/><path d="m69.921 204.978v109.175h372.158v-109.175l-134.065-99.227h-104.028z" fill="url(#SVGID_00000057845879312689724880000011625626881657639066_)"/><path d="m256 105.753v372.15h161.584c13.526 0 24.491-10.965 24.491-24.491v-248.434l-134.056-99.225z" fill="url(#SVGID_00000066513682464301996350000000377417603297412992_)"/></g><path d="m266.207 113.794 192.286 142.325c15.72 11.636 38.02 7.411 48.395-9.168 9.29-14.846 5.597-34.34-8.479-44.76l-214.796-158.986c-16.406-12.144-38.82-12.144-55.227 0l-214.795 158.986c-14.077 10.419-17.77 29.914-8.479 44.76 10.375 16.579 32.675 20.804 48.395 9.168l192.286-142.325c6.064-4.489 14.35-4.489 20.414 0z" fill="url(#SVGID_00000147899792186941648080000004343805117502231696_)"/><g><path d="m266.207 113.794 192.286 142.325c15.72 11.636 38.02 7.411 48.395-9.168 9.29-14.846 5.597-34.34-8.479-44.76l-214.796-158.986c-16.406-12.144-38.82-12.144-55.227 0l-214.795 158.986c-14.077 10.419-17.77 29.914-8.479 44.76 10.375 16.579 32.675 20.804 48.395 9.168l192.286-142.325c6.064-4.489 14.35-4.489 20.414 0z" fill="url(#SVGID_00000147899792186941648080000004343805117502231696_)"/><path d="m506.754 247.153-223.141-165.163c-16.406-12.143-38.82-12.143-55.227 0l-223.14 165.163c10.43 16.408 32.607 20.553 48.261 8.966l192.286-142.325c6.064-4.489 14.35-4.489 20.414 0l192.286 142.325c15.655 11.587 37.831 7.441 48.261-8.966z" fill="url(#SVGID_00000049194850996707951450000011114512605784578993_)"/><path d="m343.165 170.756 115.327 85.362c15.72 11.636 38.02 7.411 48.395-9.168 9.29-14.846 5.597-34.34-8.479-44.76l-107.276-79.403z" fill="url(#SVGID_00000106859816869225913550000008016767894318742699_)"/><path d="m168.835 170.756-115.328 85.363c-15.72 11.636-38.02 7.411-48.395-9.168-9.29-14.846-5.597-34.34 8.479-44.76l107.275-79.403z" fill="url(#SVGID_00000088105937288193056490000004013237575995199626_)"/></g><g><g><g><path d="m232.287 302.504h-52.239c-6.193 0-11.213-5.02-11.213-11.213v-52.239c0-6.193 5.02-11.213 11.213-11.213h52.239c6.193 0 11.213 5.02 11.213 11.213v52.239c0 6.192-5.02 11.213-11.213 11.213z" fill="url(#SVGID_00000183219045508755596240000014225034905461728402_)"/><path d="m232.287 302.504h-52.239c-6.193 0-11.213-5.02-11.213-11.213v-52.239c0-6.193 5.02-11.213 11.213-11.213h52.239c6.193 0 11.213 5.02 11.213 11.213v52.239c0 6.192-5.02 11.213-11.213 11.213z" fill="url(#SVGID_00000149348280967688073150000002303032069846912903_)"/><path d="m232.287 302.504h-52.239c-6.193 0-11.213-5.02-11.213-11.213v-52.239c0-6.193 5.02-11.213 11.213-11.213h52.239c6.193 0 11.213 5.02 11.213 11.213v52.239c0 6.192-5.02 11.213-11.213 11.213z" fill="url(#SVGID_00000000913362763665254260000004154377231636641416_)"/></g><g><path d="m331.952 302.504h-52.239c-6.193 0-11.213-5.02-11.213-11.213v-52.239c0-6.193 5.02-11.213 11.213-11.213h52.239c6.193 0 11.213 5.02 11.213 11.213v52.239c0 6.192-5.02 11.213-11.213 11.213z" fill="url(#SVGID_00000021834782198488789480000006376914778435317911_)"/><path d="m331.952 302.504h-52.239c-6.193 0-11.213-5.02-11.213-11.213v-52.239c0-6.193 5.02-11.213 11.213-11.213h52.239c6.193 0 11.213 5.02 11.213 11.213v52.239c0 6.192-5.02 11.213-11.213 11.213z" fill="url(#SVGID_00000057854552152925129030000004792688139539360148_)"/><path d="m331.952 302.504h-52.239c-6.193 0-11.213-5.02-11.213-11.213v-52.239c0-6.193 5.02-11.213 11.213-11.213h52.239c6.193 0 11.213 5.02 11.213 11.213v52.239c0 6.192-5.02 11.213-11.213 11.213z" fill="url(#SVGID_00000052807993706587330860000015048426184851385746_)"/></g></g><g><g><path d="m232.287 400.467h-52.239c-6.193 0-11.213-5.02-11.213-11.213v-52.239c0-6.193 5.02-11.213 11.213-11.213h52.239c6.193 0 11.213 5.02 11.213 11.213v52.239c0 6.193-5.02 11.213-11.213 11.213z" fill="url(#SVGID_00000147914289300384183250000015129583685606855358_)"/><path d="m232.287 400.467h-52.239c-6.193 0-11.213-5.02-11.213-11.213v-52.239c0-6.193 5.02-11.213 11.213-11.213h52.239c6.193 0 11.213 5.02 11.213 11.213v52.239c0 6.193-5.02 11.213-11.213 11.213z" fill="url(#SVGID_00000094608317299575480050000010240654054378883512_)"/><path d="m232.287 400.467h-52.239c-6.193 0-11.213-5.02-11.213-11.213v-52.239c0-6.193 5.02-11.213 11.213-11.213h52.239c6.193 0 11.213 5.02 11.213 11.213v52.239c0 6.193-5.02 11.213-11.213 11.213z" fill="url(#SVGID_00000016051392670707075550000017052653166819249051_)"/></g><g><path d="m331.952 400.467h-52.239c-6.193 0-11.213-5.02-11.213-11.213v-52.239c0-6.193 5.02-11.213 11.213-11.213h52.239c6.193 0 11.213 5.02 11.213 11.213v52.239c0 6.193-5.02 11.213-11.213 11.213z" fill="url(#SVGID_00000173127683932099722250000005186169001475255452_)"/><path d="m331.952 400.467h-52.239c-6.193 0-11.213-5.02-11.213-11.213v-52.239c0-6.193 5.02-11.213 11.213-11.213h52.239c6.193 0 11.213 5.02 11.213 11.213v52.239c0 6.193-5.02 11.213-11.213 11.213z" fill="url(#SVGID_00000065784447304982003070000012189697435473744790_)"/><path d="m331.952 400.467h-52.239c-6.193 0-11.213-5.02-11.213-11.213v-52.239c0-6.193 5.02-11.213 11.213-11.213h52.239c6.193 0 11.213 5.02 11.213 11.213v52.239c0 6.193-5.02 11.213-11.213 11.213z" fill="url(#SVGID_00000101802952819121483100000009182246650635714716_)"/></g></g></g></g><g/><g/><g/><g/><g/><g/><g/><g/><g/><g/><g/><g/><g/><g/><g/></svg>