<svg height="512" viewBox="0 0 64 64" width="512" xmlns="http://www.w3.org/2000/svg"><g id="_19-treasure_map" data-name="19-treasure map"><path d="m8 13c3.05 0 5.64.83 6.6 2a1.555 1.555 0 0 1 .4 1c0 1.66-3.13 3-7 3s-7-1.34-7-3a2.09 2.09 0 0 1 1.11-1.63 11.345 11.345 0 0 1 5.89-1.37z" fill="#b27846"/><path d="m56 9c3.87 0 7 1.34 7 3a1.481 1.481 0 0 1 -.22.75c-.78 1.3-3.51 2.25-6.78 2.25-3.87 0-7-1.34-7-3s3.13-3 7-3z" fill="#805632"/><path d="m53 18a6 6 0 1 0 6 6 6 6 0 0 0 -6-6zm-4.59-3h7.59c3.27 0 6-.95 6.78-2.25.21.13.22.23.22.25v5l-2 12 2 12v6c0 1.66-3.13 3-7 3a22.791 22.791 0 0 1 -8-2l-2-4-2 4-4.22 1.69a4.485 4.485 0 0 1 -1.62.31h-3.84a4.353 4.353 0 0 1 -2.42-.73 4.259 4.259 0 0 0 -2.4-.73 4.319 4.319 0 0 0 -1.62.31l-2.1.84a4.485 4.485 0 0 1 -1.62.31h-9.16v-5l-2-12 2-12v-6a1.555 1.555 0 0 0 -.4-1h1.51a5.6 5.6 0 0 1 1.73.28 5.4 5.4 0 0 0 1.73.28 5.558 5.558 0 0 0 2.46-.58l.62-.31a4.5 4.5 0 0 1 2.35-.67h1l2 4 2-4h.96a6.288 6.288 0 0 1 2.02.33 6.536 6.536 0 0 0 4.04 0l3.17-1.06a5.246 5.246 0 0 1 1.66-.27h1.74a3.415 3.415 0 0 1 2.41 1 3.415 3.415 0 0 0 2.41 1z" fill="#e2be82"/><path d="m15 16v6l-2 12 2 12v6c0 1.66-3.13 3-7 3s-7-1.34-7-3v-6l2-12-2-12v-6c0 1.66 3.13 3 7 3s7-1.34 7-3z" fill="#ffd793"/><circle cx="53" cy="24" fill="#805632" r="6"/><path d="m49 12v3h7c-3.87 0-7-1.34-7-3z" fill="#b09465"/><path d="m21 45-2-12 2-12v-5.638a5.488 5.488 0 0 1 -1.43.2 5.4 5.4 0 0 1 -1.73-.28 5.6 5.6 0 0 0 -1.73-.282h-1.51a1.555 1.555 0 0 1 .4 1v6l-2 12 2 12v5h6z" fill="#b09465"/><path d="m62.78 12.75c-.008.014-.024.027-.033.041a2.308 2.308 0 0 1 -.334.411c-.019.019-.041.036-.061.055a3.617 3.617 0 0 1 -.454.356c-.024.017-.045.034-.07.05a5.741 5.741 0 0 1 -.591.325l-.168.079c-.214.1-.441.187-.683.271-.062.021-.127.04-.191.061-.23.074-.47.143-.722.205-.044.01-.085.023-.129.033-.284.066-.583.121-.89.17l-.22.035c-.311.044-.63.08-.959.106l-.2.013c-.352.023-.71.039-1.077.039h-6.998v3l.224 1.342a6 6 0 1 1 1.714 10.286l.062.372-2 12v6c0 .853.83 1.62 2.159 2.165a20.565 20.565 0 0 0 4.841.835c3.87 0 7-1.34 7-3v-6l-2-12 2-12v-5c0-.02-.01-.12-.22-.25z" fill="#f0c989"/><ellipse cx="8" cy="17" fill="#5d4f4e" rx="6" ry="2"/><ellipse cx="56" cy="13" fill="#453a3a" rx="6" ry="2"/><path d="m15 16c0 1.2-1.636 2.227-4 2.708v2.464a10.056 10.056 0 0 1 -.136 1.644l-1.426 8.554a16.01 16.01 0 0 0 0 5.26l1.562 9.37v.41a4.26 4.26 0 0 1 -4.823 4.231 21.754 21.754 0 0 1 -5.177-1.28v2.639c0 1.66 3.13 3 7 3s7-1.34 7-3v-6l-2-12 2-12z" fill="#d9b77d"/><path d="m1.167 27.986h2v2.028h-2z" transform="matrix(.986 -.164 .164 .986 -4.729 .749)"/><path d="m14 52c0 .7-2.278 2-6 2s-6-1.3-6-2v-5.917l1.986-11.919a1 1 0 0 0 0-.328l-.333-2-1.973.328.306 1.836-1.972 11.836a.9.9 0 0 0 -.014.164v6c0 2.626 4.024 4 8 4s8-1.374 8-4v-6h-2z"/><path d="m56 8c-3.976 0-8 1.374-8 4a2.686 2.686 0 0 0 .962 2h-.548a2.394 2.394 0 0 1 -1.706-.707 4.385 4.385 0 0 0 -3.122-1.293h-1.732a6.235 6.235 0 0 0 -1.98.321l-3.174 1.058a5.411 5.411 0 0 1 -3.4 0 7.375 7.375 0 0 0 -2.336-.379h-.964a1 1 0 0 0 -.895.553l-1.105 2.211-1.1-2.211a1 1 0 0 0 -.9-.553h-1a5.419 5.419 0 0 0 -2.793.779l-.623.31a4.45 4.45 0 0 1 -3.423.244 6.465 6.465 0 0 0 -2.051-.333h-1.072c-1.427-1.317-4.238-2-7.038-2-2.768 0-5.556.668-7 1.959a2.708 2.708 0 0 0 -1 2.041v6a.9.9 0 0 0 .014.164l.666 4 1.973-.328-.653-3.919v-3.185a13.183 13.183 0 0 0 6 1.268 13.183 13.183 0 0 0 6-1.268v3.185l-1.986 11.919a1 1 0 0 0 0 .328l1.666 10 1.973-.328-1.639-9.836 1.972-11.836a.9.9 0 0 0 .014-.164v-6h.11a4.484 4.484 0 0 1 1.418.229 6.43 6.43 0 0 0 4.951-.351l.622-.31a3.508 3.508 0 0 1 1.899-.568h.382l1.723 3.447a1 1 0 0 0 1.79 0l1.723-3.447h.346a5.4 5.4 0 0 1 1.7.275 7.434 7.434 0 0 0 4.667 0l3.174-1.057a4.214 4.214 0 0 1 1.349-.218h1.732a2.394 2.394 0 0 1 1.706.707 4.385 4.385 0 0 0 3.122 1.293h7.586a13.183 13.183 0 0 0 6-1.268v3.185l-1.986 11.919a1 1 0 0 0 0 .328l1.666 10 1.973-.328-1.639-9.836 1.972-11.836a.9.9 0 0 0 .014-.164v-6c0-2.626-4.024-4-8-4zm-48 10c-3.722 0-6-1.3-6-2a.518.518 0 0 1 .083-.227c1.143.814 3.128 1.227 5.917 1.227a5.306 5.306 0 0 0 3.707-1.293l-1.4-1.426a3.452 3.452 0 0 1 -2.307.719 13.026 13.026 0 0 1 -3.867-.442 12.645 12.645 0 0 1 3.867-.558c3.722 0 6 1.3 6 2s-2.278 2-6 2zm42-6c0-.7 2.278-2 6-2a9.856 9.856 0 0 1 5.461 1.307 32.146 32.146 0 0 0 -5.128-.307 9.668 9.668 0 0 0 -3.743.588l.811 1.828a8.262 8.262 0 0 1 2.932-.416 35.421 35.421 0 0 1 4.2.2 11.788 11.788 0 0 1 -4.533.8c-3.722 0-6-1.295-6-2z"/><path d="m33.152 40.687c-.679-.043-1.337-.094-1.97-.151l-.182 1.992q.975.089 2.022.155z"/><path d="m21 38a2.615 2.615 0 0 0 .072.613l1.945-.467a.628.628 0 0 1 -.017-.146 4.2 4.2 0 0 1 .17-1.273l-1.9-.614a6.172 6.172 0 0 0 -.27 1.887z"/><path d="m30.849 26.634a5.906 5.906 0 0 1 .151 1.366c0 .119 0 .235-.006.349l2 .07c0-.137.007-.276.007-.42a7.894 7.894 0 0 0 -.2-1.828z"/><path d="m32.657 30.634-1.915-.576a3.316 3.316 0 0 1 -.729 1.33l1.465 1.361a5.326 5.326 0 0 0 1.179-2.115z"/><path d="m18 20v2c.61 0 1.279 0 1.985.013l.036-2c-.721-.013-1.4-.013-2.021-.013z"/><path d="m21.942 22.088c.7.044 1.328.1 1.924.182l.262-1.983c-.642-.085-1.316-.149-2.062-.2z"/><path d="m30.214 22.367-1.171 1.621a4.855 4.855 0 0 1 1.16 1.165l1.647-1.132a6.789 6.789 0 0 0 -1.636-1.654z"/><path d="m22.828 40.688a9.454 9.454 0 0 0 2.068.835l.56-1.919a7.769 7.769 0 0 1 -1.634-.651z"/><path d="m22.8 34.025 1.144 1.641a4.523 4.523 0 0 1 1.507-.6l-.482-1.942a6.423 6.423 0 0 0 -2.169.901z"/><path d="m41.1 40.961q-1.011-.015-1.994-.036l-.045 2q.992.021 2.009.036z"/><path d="m45.095 40.993-1.997-.011-.015 2 2.006.011z"/><path d="m47.093 41h2v2h-2z"/><path d="m25.738 22.6a12.071 12.071 0 0 1 1.761.549l.752-1.853a14.073 14.073 0 0 0 -2.055-.643z"/><path d="m26.943 42c.633.116 1.312.22 2.033.313l.253-1.985c-.682-.087-1.325-.184-1.923-.3z"/><path d="m35.133 40.8-.092 2q.984.045 2.013.078l.066-2q-1.014-.038-1.987-.078z"/><path d="m26.971 32.71.393 1.961a11.957 11.957 0 0 0 2.1-.586l-.746-1.856a10.088 10.088 0 0 1 -1.747.481z"/><path d="m56.293 38.293-2.293 2.293-2.293-2.293-1.414 1.414 2.293 2.293-2.293 2.293 1.414 1.414 2.293-2.293 2.293 2.293 1.414-1.414-2.293-2.293 2.293-2.293z"/><path d="m62 48c0 .7-2.278 2-6 2a22.953 22.953 0 0 1 -7.247-1.73l-1.853-3.717a1.042 1.042 0 0 0 -1.79 0l-1.83 3.66-3.869 1.548a3.348 3.348 0 0 1 -1.249.239h-3.845a3.343 3.343 0 0 1 -1.859-.562 5.35 5.35 0 0 0 -4.954-.517l-2.1.84a3.348 3.348 0 0 1 -1.242.239h-6.162v2h6.162a5.314 5.314 0 0 0 1.987-.383l2.1-.839a3.343 3.343 0 0 1 3.1.324 5.338 5.338 0 0 0 2.968.9h3.845a5.314 5.314 0 0 0 1.987-.383l4.222-1.688a1 1 0 0 0 .524-.482l1.105-2.213 1.1 2.211a1 1 0 0 0 .384.412 23.545 23.545 0 0 0 8.516 2.141c3.976 0 8-1.374 8-4v-6h-2z"/><path d="m54 23.586-2.293-2.293a1 1 0 0 0 -1.707.707v5h2v-2.586l2.293 2.293a1 1 0 0 0 .707.293.987.987 0 0 0 .383-.076 1 1 0 0 0 .617-.924v-5h-2z"/><path d="m60 24a7 7 0 1 0 -7 7 7.008 7.008 0 0 0 7-7zm-7 5a5 5 0 1 1 5-5 5.006 5.006 0 0 1 -5 5z"/></g></svg>