<svg enable-background="new 0 0 512 512" height="512" viewBox="0 0 512 512" width="512" xmlns="http://www.w3.org/2000/svg" xmlns:xlink="http://www.w3.org/1999/xlink"><linearGradient id="lg1"><stop offset="0" stop-color="#8bc53f"/><stop offset="1" stop-color="#2bc0ff"/></linearGradient><linearGradient id="SVGID_1_" gradientUnits="userSpaceOnUse" x1="36.861" x2="36.861" xlink:href="#lg1" y1="157.968" y2="446.378"/><linearGradient id="SVGID_2_" gradientUnits="userSpaceOnUse" x1="36.861" x2="36.861" xlink:href="#lg1" y1="157.968" y2="446.376"/><linearGradient id="SVGID_3_" gradientUnits="userSpaceOnUse" x1="36.861" x2="36.861" xlink:href="#lg1" y1="157.967" y2="446.378"/><linearGradient id="SVGID_4_" gradientUnits="userSpaceOnUse" x1="98.44" x2="98.439" xlink:href="#lg1" y1="157.967" y2="446.379"/><linearGradient id="SVGID_5_" gradientUnits="userSpaceOnUse" x1="96.148" x2="96.148" xlink:href="#lg1" y1="157.967" y2="446.379"/><linearGradient id="SVGID_6_" gradientUnits="userSpaceOnUse" x1="92.856" x2="92.856" xlink:href="#lg1" y1="157.971" y2="446.377"/><linearGradient id="SVGID_7_" gradientUnits="userSpaceOnUse" x1="127.884" x2="127.884" xlink:href="#lg1" y1="157.969" y2="446.376"/><linearGradient id="lg2"><stop offset="0" stop-color="#577a28"/><stop offset="1" stop-color="#00648f"/></linearGradient><linearGradient id="SVGID_8_" gradientUnits="userSpaceOnUse" x1="212.402" x2="212.402" xlink:href="#lg2" y1="164.888" y2="459.76"/><linearGradient id="SVGID_9_" gradientUnits="userSpaceOnUse" x1="156.179" x2="156.179" xlink:href="#lg2" y1="164.886" y2="459.764"/><linearGradient id="SVGID_10_" gradientUnits="userSpaceOnUse" x1="159.044" x2="159.043" xlink:href="#lg2" y1="164.888" y2="459.76"/><linearGradient id="SVGID_11_" gradientUnits="userSpaceOnUse" x1="225.178" x2="225.178" xlink:href="#lg2" y1="164.887" y2="459.76"/><linearGradient id="SVGID_12_" gradientUnits="userSpaceOnUse" x1="248.377" x2="248.377" xlink:href="#lg2" y1="164.887" y2="459.764"/><linearGradient id="SVGID_13_" gradientUnits="userSpaceOnUse" x1="156.179" x2="156.179" xlink:href="#lg2" y1="164.886" y2="459.763"/><linearGradient id="SVGID_14_" gradientUnits="userSpaceOnUse" x1="225.178" x2="225.178" xlink:href="#lg2" y1="164.892" y2="459.76"/><linearGradient id="SVGID_15_" gradientUnits="userSpaceOnUse" x1="212.402" x2="212.402" xlink:href="#lg2" y1="164.886" y2="459.764"/><linearGradient id="SVGID_16_" gradientUnits="userSpaceOnUse" x1="248.377" x2="248.377" xlink:href="#lg2" y1="164.89" y2="459.761"/><linearGradient id="SVGID_17_" gradientUnits="userSpaceOnUse" x1="271.67" x2="271.67" xlink:href="#lg1" y1="157.972" y2="446.372"/><linearGradient id="SVGID_18_" gradientUnits="userSpaceOnUse" x1="372.365" x2="372.365" xlink:href="#lg1" y1="157.939" y2="446.447"/><linearGradient id="SVGID_19_" gradientUnits="userSpaceOnUse" x1="271.67" x2="271.67" xlink:href="#lg1" y1="157.967" y2="446.377"/><linearGradient id="SVGID_21_" gradientUnits="userSpaceOnUse" x1="324.215" x2="324.215" xlink:href="#lg1" y1="157.969" y2="446.37"/><linearGradient id="SVGID_22_" gradientUnits="userSpaceOnUse" x1="373.139" x2="373.139" xlink:href="#lg1" y1="157.889" y2="446.379"/><linearGradient id="SVGID_23_" gradientUnits="userSpaceOnUse" x1="324.215" x2="324.215" xlink:href="#lg1" y1="157.965" y2="446.383"/><linearGradient id="SVGID_24_" gradientUnits="userSpaceOnUse" x1="340.647" x2="340.647" xlink:href="#lg1" y1="157.922" y2="446.393"/><linearGradient id="SVGID_25_" gradientUnits="userSpaceOnUse" x1="324.988" x2="324.988" xlink:href="#lg1" y1="157.968" y2="446.377"/><linearGradient id="SVGID_27_" gradientTransform="matrix(1.01 -.182 .001 .99 -3.671 66.693)" gradientUnits="userSpaceOnUse" x1="399.272" x2="399.272" xlink:href="#lg2" y1="169.575" y2="467.21"/><linearGradient id="SVGID_28_" gradientTransform="matrix(1.01 -.182 .001 .99 -3.671 66.693)" gradientUnits="userSpaceOnUse" x1="399.206" x2="399.206" xlink:href="#lg2" y1="169.72" y2="467.4"/><linearGradient id="SVGID_29_" gradientTransform="matrix(1.01 -.182 .001 .99 -3.671 66.693)" gradientUnits="userSpaceOnUse" x1="460.142" x2="460.142" xlink:href="#lg2" y1="170.01" y2="467.285"/><linearGradient id="SVGID_30_" gradientTransform="matrix(1.01 -.182 .001 .99 -3.671 66.693)" gradientUnits="userSpaceOnUse" x1="460.141" x2="460.141" xlink:href="#lg2" y1="169.637" y2="467.217"/><linearGradient id="SVGID_31_" gradientTransform="matrix(1.01 -.182 .001 .99 -3.671 66.693)" gradientUnits="userSpaceOnUse" x1="460.139" x2="460.139" xlink:href="#lg2" y1="169.547" y2="467.072"/><linearGradient id="SVGID_32_" gradientTransform="matrix(1.01 -.182 .001 .99 -3.671 66.693)" gradientUnits="userSpaceOnUse" x1="460.137" x2="460.137" xlink:href="#lg2" y1="169.492" y2="466.778"/><linearGradient id="SVGID_33_" gradientTransform="matrix(1.01 -.182 .001 .99 -3.671 66.693)" gradientUnits="userSpaceOnUse" x1="399.232" x2="399.232" xlink:href="#lg2" y1="169.624" y2="467.356"/><linearGradient id="SVGID_34_" gradientUnits="userSpaceOnUse" x1="271.67" x2="271.67" xlink:href="#lg2" y1="165.978" y2="380.923"/><linearGradient id="SVGID_35_" gradientUnits="userSpaceOnUse" x1="320.861" x2="320.861" xlink:href="#lg2" y1="157.175" y2="308.315"/><g id="address_city_folded_info_map_streets_tourist_pin"><g><g><g><path d="m0 169.939v301.697l128.312-28.186v-301.719z" fill="#e6e7e8"/><path d="m58.255 230.167-42.789 9.398v91.767l42.789-9.399z" fill="url(#SVGID_1_)"/><path d="m15.466 341.643v111.13l42.789-9.4v-111.13z" fill="url(#SVGID_2_)"/><path d="m58.255 172.607-42.789 9.401v47.247l42.789-9.4z" fill="url(#SVGID_3_)"/><path d="m68.567 319.668 59.745-13.125v-37.634l-59.745 13.124z" fill="url(#SVGID_4_)"/><path d="m123.729 259.604v-101.378l-55.162 12.117v101.38z" fill="url(#SVGID_5_)"/><path d="m68.567 329.978v111.13l48.578-10.671v-111.129z" fill="url(#SVGID_6_)"/></g><path d="m127.456 317.041v111.132l.856-.189v-111.13z" fill="url(#SVGID_7_)"/></g><g><path d="m128.312 141.731v301.719l127.686 28.186v-301.697z" fill="#a6a8ab"/><path d="m230.446 249.181-36.089-7.967v79.909l36.089 7.965z" fill="url(#SVGID_8_)"/><path d="m184.047 318.847v-79.909l-50.007-11.04v42.276l-5.728-1.266v37.635z" fill="url(#SVGID_9_)"/><path d="m184.047 228.627v-59.105l-50.007-11.039v59.105z" fill="url(#SVGID_10_)"/><path d="m194.357 378.094v64.47l61.641 13.607v-64.469z" fill="url(#SVGID_11_)"/><path d="m240.756 285.192 15.242 3.365v-103.152l-15.242-3.365z" fill="url(#SVGID_12_)"/><path d="m128.312 316.854v111.129l55.735 12.306v-111.133z" fill="url(#SVGID_13_)"/><path d="m194.357 367.782 61.641 13.608v-36.351l-61.641-13.605z" fill="url(#SVGID_14_)"/><path d="m230.446 238.869v-59.104l-36.089-7.968v59.106z" fill="url(#SVGID_15_)"/><path d="m240.756 331.365 15.242 3.364v-35.861l-15.242-3.365z" fill="url(#SVGID_16_)"/></g><path d="m255.998 169.93v301.706l127.645-28.195v-301.71z" fill="#e6e7e8"/><path d="m255.998 256.125c.083-.059 67.213-47.228 98.41-107.935l-98.41 21.739z" fill="#a6a8ab"/><path d="m287.342 327.805v-35.862l-31.344 6.914v35.862z" fill="url(#SVGID_17_)"/><path d="m383.643 237.144v-79.945l-22.555 5.014v79.942z" fill="url(#SVGID_18_)"/><path d="m287.342 374.468v-36.352l-31.344 6.915v36.35z" fill="url(#SVGID_19_)"/><path d="m287.342 281.633v-103.152l-31.344 6.915v103.151z" fill="url(#SVGID_19_)"/><path d="m350.777 208.843v-44.355l-53.126 11.719v44.356z" fill="url(#SVGID_21_)"/><path d="m362.635 368.167v64.469l21.008-4.66v-64.473z" fill="url(#SVGID_22_)"/><path d="m350.777 219.153-53.126 11.721v48.484l53.126-11.719z" fill="url(#SVGID_23_)"/><path d="m361.088 252.466v23.209l-63.437 13.993v82.523l85.992-19v-105.736z" fill="url(#SVGID_24_)"/><path d="m297.651 382.503v64.47l54.673-12.062v-64.47z" fill="url(#SVGID_25_)"/><path d="m255.998 391.691v64.471l31.344-6.915v-64.47z" fill="url(#SVGID_19_)"/><path d="m383.643 141.731v301.71l128.357 28.195-.219-301.93z" fill="#a6a8ab"/><path d="m415.973 244.211-.058-79.944-32.272-7.068v79.945z" fill="url(#SVGID_27_)"/><path d="m383.643 363.503v64.473l32.468 7.066-.047-64.474z" fill="url(#SVGID_28_)"/><path d="m426.529 437.313 69.832 15.227-.025-35.073-69.832-15.228z" fill="url(#SVGID_29_)"/><path d="m426.496 391.928 69.833 15.227-.069-93.357-69.831-15.226z" fill="url(#SVGID_30_)"/><path d="m426.421 288.261 69.833 15.226-.055-74.79-69.832-15.226z" fill="url(#SVGID_31_)"/><path d="m496.191 218.386-.026-36.621-69.831-15.227.025 36.621z" fill="url(#SVGID_32_)"/><path d="m415.98 254.523-32.337-7.068v105.736l32.414 7.068z" fill="url(#SVGID_33_)"/><path d="m255.998 256.125c.037-.026 13.592-9.551 31.344-25.535v-52.108l-31.344 6.915z" fill="url(#SVGID_34_)"/><path d="m0 471.636 128.312-13.865 127.686 13.865-127.686-28.186z" fill="#808184"/><path d="m255.998 471.636 127.645-13.865 128.357 13.865-128.357-28.195z" fill="#808184"/><path d="m297.651 176.207v44.355l.576-.127c15.379-14.867 32.298-33.557 45.845-54.469z" fill="url(#SVGID_35_)"/><g><path d="m255.997 40.364v32.365c23.825 0 43.149 19.321 43.149 43.152 0 23.832-19.324 43.153-43.149 43.153v97.09s75.518-64.729 75.518-140.243c0-41.71-33.812-75.517-75.518-75.517z" fill="#ec1c24"/><path d="m212.84 115.882c0-23.831 19.321-43.152 43.157-43.152v-32.366c-41.711 0-75.517 33.807-75.517 75.518 0 75.515 75.517 140.243 75.517 140.243v-97.09c-23.835 0-43.157-19.321-43.157-43.153z" fill="#a61419"/></g></g></g><g id="Capa_1"/></svg>