<svg id="Capa_1" enable-background="new 0 0 511.999 511.999" height="512" viewBox="0 0 511.999 511.999" width="512" xmlns="http://www.w3.org/2000/svg"><g><path d="m472.478 85.143h-365.997l-5.868 2.618-15.796 12.191-4.979 13.221 2.53 5.452-2.53 4.163v266.84l2.53 3.746-.921 5.268 4.7 12.04 10.302 10.946 6.052 3.477 9.626 1.75h360.35c21.827 0 39.521-17.694 39.521-39.521v-262.669c.001-21.827-17.693-39.522-39.52-39.522z" fill="#c9f0fe"/><path d="m81.909 387.334v-262.669c0-21.827 17.694-39.521 39.521-39.521h-81.909c-21.827-.001-39.521 17.694-39.521 39.521v262.669c0 21.827 17.694 39.521 39.521 39.521h81.909c-21.827.001-39.521-17.694-39.521-39.521z" fill="#9be8fd"/><path d="m462.725 292.082-96.151-163.113-19.771-10.345h-145.436l-43.578 10.345-27.766-10.345h-47.655l-2.53 4.163v266.84l2.53 3.746h80.639l15.729-11.151 13.279 11.151h280.464c3.331 0 6.04-2.71 6.04-6.04v-87.597z" fill="#5291d9"/><path d="m81.909 124.665c0-2.054.157-4.071.459-6.04h-42.847c-3.331 0-6.04 2.71-6.04 6.04v262.669c0 3.331 2.709 6.04 6.04 6.04h42.847c-.302-1.969-.459-3.986-.459-6.04z" fill="#0972d0"/><g fill="#bced6b"><path d="m85.933 152.835-.086 14.852 19.745 35.284 23.815 27.042-1.923 13.123 10.086 10.525c7.97-8.455 26.716-7.454 27.625-17.396 1.124-12.29-21.236-18.711-12.589-31.133 8.646-12.422 26.276 4.661 42.893-8.278 16.617-12.938-2.57-35.728 7.82-53.539 4.215-7.224 3.981-12.342 2.215-15.874-1.454-2.908-2.856-5.843-4.168-8.816h-71.344c-15.134 5.729-29.235 14.956-41.077 27.615z"/><path d="m143.006 291.844c-1.009-.117-1.923-.259-2.791-.413s-5.262 8.721-4.747 8.378 9.529 24.26 9.529 24.26l41.723 39.611 7.95-2.39c7.349-13.327 19.639-19.996 15.467-41.626-5.378-27.875-46.077-25.371-67.131-27.82z"/></g><g><path d="m190.054 375.018c.782-5.48 2.494-9.879 4.616-13.728-6.717-15.471-16.169-30.445-32.357-37.928-12.791-5.913-19.14-18.273-22.097-31.931-17.25-3.066-7.627-13.396-6.114-29.938.303-3.318 1.588-5.836 3.469-7.831-.107-3.994-.213-8.247-.281-12.845-.477-32.239-17.185-41.872-21.93-44.451-.343-.186-.695-.365-1.055-.538-18.883-9.004-29.202-29.537-25.357-49.589-.968 1.035-1.927 2.086-2.864 3.167v.001c-8.173 9.426-14.517 19.866-19.06 30.866-7.838 18.977.92 40.435 19.154 49.13.304.145.6.296.889.453 3.997 2.172 18.069 10.285 18.47 37.437.135 9.14.452 16.742.521 23.385.185 17.663 3.859 38.418 20.555 46.136 22.619 10.456 29.632 38.272 36.397 56.56h29.007c-1.864-5.592-2.912-11.703-1.963-18.356z" fill="#98d829"/></g><path d="m472.478 118.625h-125.675c7.613 29.487-10.131 48.639-10.131 48.639-6.261 5.566-11.526 7.53-26.28 6.326-21.729-1.774-28.988 10.185-27.282 17.883.724 3.271.326 6.687-1.47 9.515l-.366.576c-2.517 3.965-6.947 6.239-11.642 6.131-3.638-.083-6.743 1.077-9.104 4.797-7.092 11.176.431 26.007 23.643 18.269 23.212-7.737 42.413 8.598 36.968 20.633-5.445 12.036-24.932 10.89-37.827 6.591-1.055-.352-2.224-.709-3.468-1.053l-10.392 10.426 5.092 31.936 26.098 5.494 33.996 3.434s3.091 47.389 3.091 48.762c0 1.374 5.494 10.302 5.494 10.302l12.012.362c1.751-3.212 3.146-6.143 4.161-8.358 4.729-10.317 1.72-37.398 16.765-45.136 15.045-7.737 12.466-29.66 7.308-36.107-3.889-4.862-.444-21.204 19.723-22.137 14.705 0 15.008 11.387 9.654 30.233-1.705 6.004-.354 12.704 2.279 19.051 6.227 15.013 24.372 21.608 39.037 13.649 8.326-4.519 18.729-11.258 24.357-19.104v-175.074c-.001-3.336-2.705-6.04-6.041-6.04z" fill="#bced6b"/><g><path d="m346.445 314.774c-2.579-16.334-17.624-12.895-39.977-13.325-22.352-.43-27.081-11.177-26.651-43.861.003-.227.021-.433.027-.656-13.958-3.862-38.264-5.905-38.659 24.106-.43 32.685 4.299 43.431 26.651 43.861 22.353.43 37.398-3.009 39.977 13.325 2.579 16.335-4.728 52.874 14.615 55.023 15.19 1.688 26.402-13.852 32.807-25.6-11.909-8.423-6.518-38.482-8.79-52.873z" fill="#98d829"/></g></g></svg>