<?xml version="1.0" encoding="iso-8859-1"?>
<!-- Generator: Adobe Illustrator 19.0.0, SVG Export Plug-In . SVG Version: 6.00 Build 0)  -->
<svg version="1.1" id="Capa_1" xmlns="http://www.w3.org/2000/svg" xmlns:xlink="http://www.w3.org/1999/xlink" x="0px" y="0px"
	 viewBox="0 0 512 512" style="enable-background:new 0 0 512 512;" xml:space="preserve">
<linearGradient id="SVGID_1_" gradientUnits="userSpaceOnUse" x1="428.7436" y1="177.778" x2="428.7436" y2="36.548" gradientTransform="matrix(1.0039 0 0 -1.0039 0.1922 516.5508)">
	<stop  offset="0" style="stop-color:#9FC7E2"/>
	<stop  offset="1" style="stop-color:#4975AD"/>
</linearGradient>
<rect x="365.819" y="317.847" style="fill:url(#SVGID_1_);" width="129.596" height="159.664"/>
<linearGradient id="SVGID_2_" gradientUnits="userSpaceOnUse" x1="459.7906" y1="48.6716" x2="314.1806" y2="130.2516" gradientTransform="matrix(1.0039 0 0 -1.0039 0.1922 516.5508)">
	<stop  offset="0" style="stop-color:#9FC7E2;stop-opacity:0"/>
	<stop  offset="1" style="stop-color:#4975AD"/>
</linearGradient>
<polygon style="fill:url(#SVGID_2_);" points="368.929,352.084 365.819,352.084 365.819,477.501 495.412,477.501 "/>
<linearGradient id="SVGID_3_" gradientUnits="userSpaceOnUse" x1="294.7083" y1="17.074" x2="255.0033" y2="-34.286" gradientTransform="matrix(1.0039 0 0 -1.0039 0.1922 516.5508)">
	<stop  offset="0" style="stop-color:#FF5D00"/>
	<stop  offset="1" style="stop-color:#D54003"/>
</linearGradient>
<path style="fill:url(#SVGID_3_);" d="M365.819,352.054h129.315c5.299,0,9.093-5.117,7.553-10.187l-12.832-42.27
	c-1.01-3.327-4.077-5.601-7.553-5.601H365.819V352.054z"/>
<linearGradient id="SVGID_4_" gradientUnits="userSpaceOnUse" x1="203.1221" y1="244.258" x2="203.1221" y2="-50.572" gradientTransform="matrix(1.0039 0 0 -1.0039 0.1922 516.5508)">
	<stop  offset="0" style="stop-color:#9FC7E2"/>
	<stop  offset="1" style="stop-color:#4975AD"/>
</linearGradient>
<polygon style="fill:url(#SVGID_4_);" points="368.356,224.618 368.356,477.501 39.866,477.501 39.866,224.618 204.11,59.379 "/>
<linearGradient id="SVGID_5_" gradientUnits="userSpaceOnUse" x1="226.5944" y1="253.8138" x2="83.4144" y2="396.9837" gradientTransform="matrix(1.0039 0 0 -1.0039 0.1922 516.5508)">
	<stop  offset="0" style="stop-color:#9FC7E2;stop-opacity:0"/>
	<stop  offset="1" style="stop-color:#4975AD"/>
</linearGradient>
<polygon style="fill:url(#SVGID_5_);" points="368.353,224.621 368.353,477.505 264.647,477.505 39.869,252.727 39.869,224.621 
	204.11,59.384 222.274,77.662 224.358,79.757 "/>
<linearGradient id="SVGID_6_" gradientUnits="userSpaceOnUse" x1="350.6407" y1="222.9701" x2="207.8007" y2="365.8001" gradientTransform="matrix(1.0039 0 0 -1.0039 0.1922 516.5508)">
	<stop  offset="0" style="stop-color:#9FC7E2;stop-opacity:0"/>
	<stop  offset="1" style="stop-color:#4975AD"/>
</linearGradient>
<path style="fill:url(#SVGID_6_);" d="M368.353,224.621v169.177L186.621,212.066c-17.293-15.686-29.236-37.157-32.782-61.365
	l70.519-70.945L368.353,224.621z"/>
<linearGradient id="SVGID_7_" gradientUnits="userSpaceOnUse" x1="214.6276" y1="60.757" x2="67.0176" y2="208.377" gradientTransform="matrix(1.0039 0 0 -1.0039 0.1922 516.5508)">
	<stop  offset="0" style="stop-color:#9FC7E2;stop-opacity:0"/>
	<stop  offset="1" style="stop-color:#4975AD"/>
</linearGradient>
<path style="fill:url(#SVGID_7_);" d="M317.596,477.501H156.944l-88.31-88.31c-3.888-2.52-6.475-6.894-6.475-11.855V306.26
	c0-7.786,6.34-14.127,14.127-14.127h51.241c4.972,0,9.347,2.588,11.866,6.475l-0.384,0.305L317.596,477.501z"/>
<path style="fill:#503837;" d="M127.527,383.181H76.29c-3.231,0-5.851-2.619-5.851-5.851v-71.065c0-3.232,2.619-5.851,5.851-5.851
	h51.237c3.231,0,5.851,2.619,5.851,5.851v71.065C133.377,380.562,130.758,383.181,127.527,383.181z"/>
<path style="fill:#FFFFFF;" d="M127.527,391.462H76.29c-7.792,0-14.131-6.34-14.131-14.131v-71.066
	c0-7.792,6.34-14.131,14.131-14.131h51.237c7.792,0,14.131,6.34,14.131,14.131v71.066
	C141.658,385.122,135.32,391.462,127.527,391.462z M78.721,374.9h46.375v-66.204H78.721V374.9z"/>
<linearGradient id="SVGID_8_" gradientUnits="userSpaceOnUse" x1="380.4614" y1="100.5008" x2="285.9414" y2="195.0108" gradientTransform="matrix(1.0039 0 0 -1.0039 0.1922 516.5508)">
	<stop  offset="0" style="stop-color:#9FC7E2;stop-opacity:0"/>
	<stop  offset="1" style="stop-color:#4975AD"/>
</linearGradient>
<path style="fill:url(#SVGID_8_);" d="M368.362,321.45v156.052h-5.041l-88.31-88.31c-3.899-2.52-6.487-6.894-6.487-11.855V306.26
	c0-7.786,6.34-14.127,14.138-14.127h51.23c4.972,0,9.346,2.588,11.866,6.475l0.204,0.159l-0.136,0.147L368.362,321.45z"/>
<path style="fill:#503837;" d="M333.895,383.181h-51.237c-3.232,0-5.851-2.619-5.851-5.851v-71.065c0-3.232,2.619-5.851,5.851-5.851
	h51.237c3.232,0,5.851,2.619,5.851,5.851v71.065C339.746,380.562,337.127,383.181,333.895,383.181z"/>
<path style="fill:#FFFFFF;" d="M333.895,391.462h-51.237c-7.792,0-14.131-6.34-14.131-14.131v-71.066
	c0-7.792,6.34-14.131,14.131-14.131h51.237c7.792,0,14.131,6.34,14.131,14.131v71.066
	C348.027,385.122,341.688,391.462,333.895,391.462z M285.09,374.9h46.375v-66.204H285.09V374.9z"/>
<linearGradient id="SVGID_9_" gradientUnits="userSpaceOnUse" x1="210.5923" y1="292.8692" x2="170.8873" y2="127.1892" gradientTransform="matrix(1.0039 0 0 -1.0039 0.1922 516.5508)">
	<stop  offset="0" style="stop-color:#FF5D00"/>
	<stop  offset="1" style="stop-color:#D54003"/>
</linearGradient>
<path style="fill:url(#SVGID_9_);" d="M405.498,247.463L213.995,55.898c-5.458-5.458-14.309-5.458-19.767,0L2.678,247.448
	c-3.571,3.571-3.571,9.361,0,12.932l8.164,8.164c3.571,3.571,9.361,3.571,12.932,0L201.509,90.808c1.437-1.437,3.767-1.437,5.204,0
	l177.689,177.75c3.571,3.571,9.361,3.571,12.932,0l8.164-8.164C409.069,256.823,409.069,251.034,405.498,247.463z"/>
<linearGradient id="SVGID_10_" gradientUnits="userSpaceOnUse" x1="383.6469" y1="266.3763" x2="314.2969" y2="335.7363" gradientTransform="matrix(1.0039 0 0 -1.0039 0.1922 516.5508)">
	<stop  offset="0" style="stop-color:#D54003;stop-opacity:0"/>
	<stop  offset="1" style="stop-color:#A40002"/>
</linearGradient>
<path style="fill:url(#SVGID_10_);" d="M213.995,55.898c-2.73-2.73-6.307-4.094-9.884-4.094V89.73c0.942,0,1.883,0.359,2.602,1.078
	l177.689,177.75c3.571,3.571,9.361,3.571,12.932,0l8.164-8.164c3.571-3.571,3.571-9.361,0-12.932L213.995,55.898z"/>
<path style="fill:#FFBF5C;" d="M169.882,477.496v-179.45c0-7.915,6.416-14.332,14.332-14.332h39.795
	c7.915,0,14.332,6.416,14.332,14.332v179.45H169.882z"/>
<path style="fill:#FFE7A5;" d="M246.817,477.496h-16.952V302.931c0-5.907-4.834-10.741-10.741-10.741h-30.025
	c-5.932,0-10.741,4.809-10.741,10.741v174.565h-16.952V291.722c0-9.104,7.38-16.483,16.483-16.483h52.445
	c9.104,0,16.483,7.38,16.483,16.483L246.817,477.496L246.817,477.496z"/>
<circle style="fill:#FFFFFF;" cx="191.97" cy="351.066" r="7.729"/>
<linearGradient id="SVGID_11_" gradientUnits="userSpaceOnUse" x1="39.5136" y1="61.423" x2="366.7336" y2="61.423" gradientTransform="matrix(1.0039 0 0 -1.0039 0.1922 516.5508)">
	<stop  offset="0" style="stop-color:#FF5D00"/>
	<stop  offset="1" style="stop-color:#D54003"/>
</linearGradient>
<rect x="39.861" y="432.274" style="fill:url(#SVGID_11_);" width="328.503" height="45.227"/>
<linearGradient id="SVGID_12_" gradientUnits="userSpaceOnUse" x1="20.7769" y1="86.4382" x2="80.1089" y2="27.1082" gradientTransform="matrix(1.0039 0 0 -1.0039 0.1922 516.5508)">
	<stop  offset="0" style="stop-color:#9EB644"/>
	<stop  offset="1" style="stop-color:#738611"/>
</linearGradient>
<path style="fill:url(#SVGID_12_);" d="M96.543,459.825c0,6.24-1.181,12.198-3.336,17.671H3.336C1.181,472.023,0,466.067,0,459.825
	c0-6.077,1.12-11.887,3.172-17.24c6.939-18.154,24.515-31.032,45.099-31.032s38.161,12.878,45.099,31.032
	C95.423,447.939,96.543,453.749,96.543,459.825z"/>
<linearGradient id="SVGID_13_" gradientUnits="userSpaceOnUse" x1="72.4289" y1="73.3883" x2="115.4689" y2="30.3483" gradientTransform="matrix(1.0039 0 0 -1.0039 0.1922 516.5508)">
	<stop  offset="0" style="stop-color:#9EB644"/>
	<stop  offset="1" style="stop-color:#738611"/>
</linearGradient>
<path style="fill:url(#SVGID_13_);" d="M127.671,464.678c0,4.527-0.856,8.848-2.419,12.818H60.058
	c-1.563-3.97-2.419-8.291-2.419-12.818c0-4.408,0.813-8.623,2.301-12.506c5.034-13.168,17.783-22.511,32.716-22.511
	s27.682,9.341,32.716,22.511C126.858,456.056,127.671,460.27,127.671,464.678z"/>
<linearGradient id="SVGID_14_" gradientUnits="userSpaceOnUse" x1="422.1482" y1="94.3176" x2="491.3082" y2="25.1576" gradientTransform="matrix(1.0039 0 0 -1.0039 0.1922 516.5508)">
	<stop  offset="0" style="stop-color:#9EB644"/>
	<stop  offset="1" style="stop-color:#738611"/>
</linearGradient>
<path style="fill:url(#SVGID_14_);" d="M512,456.898c0,7.274-1.376,14.219-3.888,20.598H403.35
	c-2.512-6.381-3.888-13.324-3.888-20.598c0-7.084,1.306-13.856,3.697-20.097c8.089-21.162,28.577-36.173,52.571-36.173
	c23.995,0,44.483,15.012,52.571,36.173C510.694,443.042,512,449.814,512,456.898z"/>
<linearGradient id="SVGID_15_" gradientUnits="userSpaceOnUse" x1="208.1671" y1="424.0265" x2="365.3771" y2="266.8265" gradientTransform="matrix(1.0039 0 0 -1.0039 0.1922 516.5508)">
	<stop  offset="0" style="stop-color:#FFE7A5"/>
	<stop  offset="0.966" style="stop-color:#FFBF5C"/>
</linearGradient>
<circle style="fill:url(#SVGID_15_);" cx="256" cy="137.683" r="103.193"/>
<linearGradient id="SVGID_16_" gradientUnits="userSpaceOnUse" x1="321.3274" y1="333.1858" x2="118.2274" y2="444.0258" gradientTransform="matrix(1.0039 0 0 -1.0039 0.1922 516.5508)">
	<stop  offset="0" style="stop-color:#FF5D00;stop-opacity:0"/>
	<stop  offset="1" style="stop-color:#D54003"/>
</linearGradient>
<path style="fill:url(#SVGID_16_);" d="M359.064,142.934l-64.263-64.262c-1.429-2.488-4.395-4.542-8.906-6.164
	c-4.628-1.661-9.562-2.792-14.788-3.414l-6.901-6.156c-0.139-0.974-0.709-1.856-1.767-2.636c-1.219-0.895-2.532-1.345-3.94-1.345
	c-1.538,0-2.854,0.451-3.941,1.345c-1.09,0.899-1.634,1.923-1.634,3.076v5.576c-10.382,1.154-19.065,4.614-26.05,10.382
	c-6.987,5.768-10.478,14.221-10.478,25.353c0,3.965,0.448,7.579,1.345,10.84c0.897,3.262,2.37,6.107,4.422,8.537
	c2.048,2.43,4.005,4.509,5.863,6.236c0.098,0.091,0.209,0.183,0.311,0.274l24.585,24.64v32.162
	c-5.68-0.384-10.682-1.853-15.008-4.413c-4.325-2.556-7.723-4.953-10.198-7.194c-2.476-2.238-4.473-3.358-5.992-3.358
	c-2.295,0-4.332,1.217-6.116,3.646c-1.784,2.431-2.673,4.86-2.673,7.29c0,3.983,2.31,7.907,6.913,11.773l45.342,45.342
	C316.155,235.965,356.481,194.427,359.064,142.934z"/>
<linearGradient id="SVGID_17_" gradientUnits="userSpaceOnUse" x1="254.8076" y1="413.538" x2="254.8076" y2="277.478" gradientTransform="matrix(1.0039 0 0 -1.0039 0.1922 516.5508)">
	<stop  offset="0" style="stop-color:#FFFFFF"/>
	<stop  offset="1" style="stop-color:#E2EDF2"/>
</linearGradient>
<path style="fill:url(#SVGID_17_);" d="M212.936,183.348c0-2.431,0.889-4.86,2.673-7.29c1.784-2.429,3.821-3.646,6.116-3.646
	c1.52,0,3.518,1.12,5.992,3.358c2.475,2.241,5.872,4.638,10.198,7.194c4.326,2.559,9.327,4.029,15.008,4.413v-45.085
	c-3.844-1.405-6.795-2.526-8.843-3.358c-2.052-0.829-4.777-2.046-8.172-3.644c-3.396-1.598-6.026-3.262-7.882-4.989
	c-1.859-1.727-3.815-3.806-5.863-6.236c-2.052-2.429-3.527-5.275-4.422-8.537c-0.899-3.262-1.345-6.876-1.345-10.84
	c0-11.132,3.491-19.586,10.478-25.353c6.984-5.768,15.667-9.228,26.05-10.382v-5.576c0-1.154,0.544-2.178,1.634-3.076
	c1.087-0.895,2.403-1.345,3.941-1.345c1.409,0,2.722,0.451,3.94,1.345c1.217,0.899,1.826,1.923,1.826,3.076v5.191
	c7.817,0.258,15.027,1.571,21.628,3.941c6.6,2.373,9.901,5.671,9.901,9.901c0,2.307-0.778,4.71-2.328,7.209
	c-1.55,2.499-3.619,3.749-6.203,3.749c-1.022,0-3.83-1.087-8.42-3.268c-4.594-2.178-9.453-3.461-14.579-3.845v38.96
	c5.098,1.92,9.337,3.743,12.713,5.469c3.376,1.728,6.948,4.125,10.709,7.194c3.762,3.07,6.597,6.939,8.507,11.607
	c1.91,4.668,2.868,10.138,2.868,16.404c0,11.451-3.123,20.552-9.37,27.306c-6.247,6.752-14.723,10.901-25.428,12.445v6.422
	c0,1.132-0.609,2.138-1.826,3.022c-1.219,0.88-2.532,1.322-3.94,1.322c-1.538,0-2.854-0.442-3.941-1.319
	c-1.09-0.882-1.634-1.889-1.634-3.022v-5.849c-11.151-0.13-20.603-2.679-28.357-7.654
	C216.812,193.589,212.936,188.517,212.936,183.348z M235.43,102.769c0,4.989,1.553,8.795,4.661,11.415
	c3.106,2.622,7.768,5.086,13.986,7.386V86.621C241.644,88.158,235.43,93.541,235.43,102.769z M263.113,186.992
	c11.277-2.046,16.918-8.378,16.918-18.993c0-5.626-1.475-10.039-4.422-13.236c-2.949-3.195-7.113-5.947-12.496-8.251V186.992z"/>
<g>
</g>
<g>
</g>
<g>
</g>
<g>
</g>
<g>
</g>
<g>
</g>
<g>
</g>
<g>
</g>
<g>
</g>
<g>
</g>
<g>
</g>
<g>
</g>
<g>
</g>
<g>
</g>
<g>
</g>
</svg>
