<svg id="Layer_1" enable-background="new 0 0 2048 2048" viewBox="0 0 2048 2048" xmlns="http://www.w3.org/2000/svg"><g><g><g id="XMLID_4_"><g><path d="m1792 605.73v545.165l-571.281-150.195-60.813-66.713c-10.351-11.366-7.142-25.102 7.173-30.702l133.696-52.263c14.316-5.59 17.525-19.336 7.173-30.691l-96.701-106.099c-10.351-11.355-7.142-25.102 7.173-30.691l133.696-52.263c14.316-5.6 17.525-19.336 7.173-30.702l-71.175-78.089h420.641c45.981-.001 83.245 37.284 83.245 83.243z" fill="#76cbff"/><path d="m1217.976 567.71c10.351 11.366 7.142 25.112-7.173 30.702l-133.696 52.263c-14.316 5.59-17.525 19.336-7.173 30.691l96.701 106.1c10.351 11.355 7.142 25.102-7.173 30.691l-133.696 52.263c-14.316 5.6-17.525 19.336-7.173 30.702l96.69 106.089c10.361 11.355 7.142 25.102-7.173 30.702l-133.685 52.253c-4.896 1.915-8.488 4.772-10.682 8.167l-99.351 178.175-2.112-2.432-606.28 19.81v-721.021c0-45.959 37.275-83.244 83.244-83.244h807.557z" fill="#76cbff"/><path d="m554.445 652.838c56.621 0 102.528 45.907 102.528 102.539 0 56.621-45.907 102.528-102.528 102.528-56.631 0-102.539-45.907-102.539-102.528 0-56.632 45.908-102.539 102.539-102.539z" fill="#ffc952"/><path d="m1063.94 1226.955c10.351 11.366 7.142 25.102-7.173 30.702l-133.696 52.263c-13.891 5.424-17.328 18.518-8.064 29.667l-102.397-73.407 151.131-167.848c-4.244 6.542-3.302 15.061 3.509 22.534z" fill="#82b700"/><path d="m1792 1037.032v438.103c0 45.959-37.264 83.244-83.244 83.244h-685.082l123.065-48.112c14.316-5.59 17.525-19.336 7.173-30.702l-96.69-106.089c-10.361-11.355-7.142-25.102 7.173-30.691l133.685-52.263c14.316-5.6 17.525-19.346 7.173-30.702l-96.69-106.089c-10.351-11.355-7.142-25.102 7.173-30.702l133.696-52.253c14.305-5.6 17.525-19.346 7.173-30.702l-35.887-39.376 158.404-178.692c61.382-69.249 160.899-69.249 222.281 0z" fill="#82b700"/><path d="m1012.598 1446.7c10.351 11.366 7.142 25.112-7.173 30.702l-123.065 48.112h-543.116c-45.97 0-83.244-37.285-83.244-83.244v-148.384l199.012-224.517c61.382-69.26 160.909-69.26 222.281 0l153.932 173.651 2.112 2.433 81.671 94.134.89 1.025z" fill="#8dd201"/></g></g></g></g></svg>