<svg height="512" viewBox="0 0 48 48" width="512" xmlns="http://www.w3.org/2000/svg" xmlns:xlink="http://www.w3.org/1999/xlink"><linearGradient id="linear-gradient" gradientUnits="userSpaceOnUse" x1="26" x2="26" y1="41" y2="9"><stop offset="0" stop-color="#54a5ff"/><stop offset="1" stop-color="#8ad3fe"/></linearGradient><linearGradient id="linear-gradient-2" gradientUnits="userSpaceOnUse" x1="26" x2="26" y1="38" y2="12"><stop offset="0" stop-color="#d3e6f5"/><stop offset="1" stop-color="#f0f7fc"/></linearGradient><linearGradient id="linear-gradient-3" gradientUnits="userSpaceOnUse" x1="40" x2="40" y1="45" y2="31"><stop offset="0" stop-color="#fe9661"/><stop offset="1" stop-color="#ffb369"/></linearGradient><g id="No_Picture" data-name="No Picture"><rect fill="url(#linear-gradient)" height="32" rx="3" width="38" x="7" y="9"/><rect fill="url(#linear-gradient-2)" height="26" rx="1" width="32" x="10" y="12"/><path d="m10 30 7.09-5.52a3 3 0 0 1 3.77.07l4.14 3.45 7.88-7.1a3 3 0 0 1 4.12.1l5 5v11a1 1 0 0 1 -1 1h-30a1 1 0 0 1 -1-1z" fill="#b4cde1"/><circle cx="25" cy="18" fill="#b4cde1" r="3"/><g fill="#d7e9f7"><path d="m4 37h-2a1 1 0 0 1 -1-1v-2a1 1 0 0 1 2 0v1h1a1 1 0 0 1 0 2z"/><path d="m2 7a1 1 0 0 1 -1-1v-2a1 1 0 0 1 1-1h2a1 1 0 0 1 0 2h-1v1a1 1 0 0 1 -1 1z"/><path d="m40 7a1 1 0 0 1 -1-1v-1h-1a1 1 0 0 1 0-2h2a1 1 0 0 1 1 1v2a1 1 0 0 1 -1 1z"/><path d="m2 31a1 1 0 0 1 -1-1v-2a1 1 0 0 1 2 0v2a1 1 0 0 1 -1 1z"/><path d="m2 25a1 1 0 0 1 -1-1v-2a1 1 0 0 1 2 0v2a1 1 0 0 1 -1 1z"/><path d="m2 19a1 1 0 0 1 -1-1v-2a1 1 0 0 1 2 0v2a1 1 0 0 1 -1 1z"/><path d="m2 13a1 1 0 0 1 -1-1v-2a1 1 0 0 1 2 0v2a1 1 0 0 1 -1 1z"/><path d="m10 5h-2a1 1 0 0 1 0-2h2a1 1 0 0 1 0 2z"/><path d="m16 5h-2a1 1 0 0 1 0-2h2a1 1 0 0 1 0 2z"/><path d="m22 5h-2a1 1 0 0 1 0-2h2a1 1 0 0 1 0 2z"/><path d="m28 5h-2a1 1 0 0 1 0-2h2a1 1 0 0 1 0 2z"/><path d="m34 5h-2a1 1 0 0 1 0-2h2a1 1 0 0 1 0 2z"/></g><circle cx="40" cy="38" fill="url(#linear-gradient-3)" r="7"/><path d="m41.38 38 1.33-1.33a1 1 0 0 0 0-1.41 1 1 0 0 0 -1.42 0l-1.29 1.29-1.33-1.33a1 1 0 1 0 -1.41 1.41l1.29 1.37-1.33 1.33a1 1 0 0 0 0 1.42 1 1 0 0 0 1.41 0l1.37-1.37 1.33 1.33a1 1 0 0 0 1.42-1.42z" fill="#f0f7fc"/></g></svg>