<svg viewBox="0 0 512 512" xmlns="http://www.w3.org/2000/svg" xmlns:xlink="http://www.w3.org/1999/xlink"><linearGradient id="linear-gradient" gradientUnits="userSpaceOnUse" x1="74.98" x2="437.02" y1="74.98" y2="437.02"><stop offset="0" stop-color="#67b5f8"/><stop offset="1" stop-color="#40c2f2"/></linearGradient><linearGradient id="linear-gradient-2" gradientUnits="userSpaceOnUse" x1="138.35" x2="413.73" y1="184.93" y2="460.31"><stop offset="0" stop-color="#3286B3"/><stop offset="1" stop-color="#3286B3" stop-opacity="0"/></linearGradient><g id="Layer_2" data-name="Layer 2"><g id="Layer_copy_7" data-name="Layer copy 7"><g id="_143" data-name="143"><circle id="background" cx="256" cy="256" fill="url(#linear-gradient)" r="256"/><path d="m505 315.66c-26.87 112.61-128.16 196.34-249 196.34a256.72 256.72 0 0 1 -28-1.52l-109.25-109.24-2.75-16.41 6.54-31.9 19.24-38.52 30.74-31.41 49.48-23.43 43.28-3.44-53.2-53.2-14.48-20.64-4.6-35.24 12.87-29.61 32.33-21.91 31.61-1 30.19 16.08z" fill="url(#linear-gradient-2)"/><g fill="#fff"><path d="m396 395.41a7.59 7.59 0 0 1 -7.59 7.59h-264.8a7.59 7.59 0 0 1 -7.59-7.59 140 140 0 0 1 280 0z"/><circle cx="256" cy="156.77" r="63.77"/></g></g></g></g></svg>