<svg id="Layer_1" enable-background="new 0 0 512 512" height="512" viewBox="0 0 512 512" width="512" xmlns="http://www.w3.org/2000/svg" xmlns:xlink="http://www.w3.org/1999/xlink"><linearGradient id="lg1"><stop offset="0" stop-color="#d6448e"/><stop offset="1" stop-color="#feadbc"/></linearGradient><linearGradient id="SVGID_1_" gradientTransform="matrix(1 -.032 .032 1 -297.71 -139.806)" gradientUnits="userSpaceOnUse" x1="530.425" x2="545.765" xlink:href="#lg1" y1="541.681" y2="326.156"/><linearGradient id="lg2"><stop offset=".00000027704" stop-color="#bcbec0"/><stop offset=".4006" stop-color="#e6e7e8"/><stop offset=".4569" stop-color="#efeff0"/><stop offset=".5852" stop-color="#fff"/><stop offset="1" stop-color="#fff"/></linearGradient><radialGradient id="SVGID_00000034050709482351024020000000092649680015223189_" cx="431.478" cy="343.085" gradientUnits="userSpaceOnUse" r="264.705" xlink:href="#lg2"/><radialGradient id="SVGID_00000179610508783183167500000016932564523371716013_" cx="266.799" cy="411.865" gradientUnits="userSpaceOnUse" r="115.936"><stop offset="0" stop-color="#fdecda"/><stop offset=".4522" stop-color="#fdead8"/><stop offset=".6527" stop-color="#fce4d1"/><stop offset=".8034" stop-color="#fbdac4"/><stop offset=".9284" stop-color="#f9cbb2"/><stop offset="1" stop-color="#f7bfa4"/></radialGradient><linearGradient id="SVGID_00000147935306699343369520000000711196111010065590_" gradientUnits="userSpaceOnUse" x1="281.173" x2="281.683" y1="323.522" y2="384.543"><stop offset="0" stop-color="#f7bfa4"/><stop offset=".3162" stop-color="#f7c2a7"/><stop offset=".5612" stop-color="#f8cab1"/><stop offset=".7816" stop-color="#fad7c1"/><stop offset=".9876" stop-color="#fdebd8"/><stop offset="1" stop-color="#fdecda"/></linearGradient><linearGradient id="SVGID_00000135654611073616627990000016691952769323219338_" gradientTransform="matrix(1 .019 -.019 1 -367.959 -186.769)" gradientUnits="userSpaceOnUse" x1="487.689" x2="487.689" xlink:href="#lg1" y1="540.138" y2="433.567"/><linearGradient id="lg3"><stop offset="0" stop-color="#f7bfa4"/><stop offset=".289" stop-color="#f8c8af"/><stop offset=".7958" stop-color="#fbe1cc"/><stop offset="1" stop-color="#fdecda"/></linearGradient><radialGradient id="SVGID_00000090266090785565334790000012983658809978577807_" cx="342.178" cy="252.239" gradientTransform="matrix(.988 -.152 .123 .8 -117.958 -13.622)" gradientUnits="userSpaceOnUse" r="191.22" xlink:href="#lg3"/><radialGradient id="SVGID_00000174579874825852892810000014240632923133983622_" cx="-2680.614" cy="-463.823" gradientTransform="matrix(-.618 -.411 -.31 .466 -1672.87 -578.179)" gradientUnits="userSpaceOnUse" r="62.293"><stop offset="0" stop-color="#f7bfa4"/><stop offset=".7863" stop-color="#fdecda"/></radialGradient><radialGradient id="SVGID_00000132801996262052733780000017915722510829493160_" cx="758.92" cy="414.659" gradientTransform="matrix(1 .019 -.019 1 -367.959 -186.769)" gradientUnits="userSpaceOnUse" r="46.176" xlink:href="#lg3"/><radialGradient id="SVGID_00000020364752953977457460000002061008239493992892_" cx="743.018" cy="460.105" gradientTransform="matrix(1 .019 -.019 1 -367.959 -186.769)" gradientUnits="userSpaceOnUse" r="38.131" xlink:href="#lg3"/><radialGradient id="SVGID_00000021821838755832964870000001180650702221736836_" cx="296.573" cy="324.625" gradientTransform="matrix(.982 -.187 .105 .55 -20.653 196.274)" gradientUnits="userSpaceOnUse" r="62.293"><stop offset="0" stop-color="#f7bfa4"/><stop offset="1" stop-color="#fdecda"/></radialGradient><radialGradient id="SVGID_00000017494313886078999310000015181470947217195199_" cx="430.129" cy="364.148" gradientUnits="userSpaceOnUse" r="223.267" xlink:href="#lg2"/><g><path d="m442.906 336.636c6.988-53.19-9.236-74.353-9.236-74.353s.358 1.189.888 3.383c10.634 43.853-.157 86.649-31.46 114.651 4.569-12.332 8.473-30.155 4.903-50.802.11 26.02-10.175 47.979-17.892 60.761-6.742 4.447-14.172 8.316-22.304 11.517 3.897-6.428 9.587-16.874 11.042-25.195-7.105 12.183-13.839 21.882-18.144 27.773-5.979 2.012-12.309 3.674-18.971 4.967l-11.705 2.234c5.443-8.158 12.995-21.685 15.912-37.506-6.129 18.305-18.081 31.923-26.025 39.45-.01 0-.01 0-.01 0l-40.384 7.722-102.739-8.058c-14.206-.577-26.977-2.311-38.41-5.028h-.01c-7.086-7.598-14.941-18.923-16.934-34.968 0 0-2.318 17.343 10.113 33.184-16.115-4.589-29.353-11.24-40.027-19.334-.963-5.712-1.586-12.406-1.456-20.224 0 0-1.991 7.537-1.891 17.569-48.753-40.416-38.775-112.761-4.895-148.74.852-.898.866-2.329 1.309-3.504-3.136-10.796-17.616-62.62 35.679-121.65 40.449-42.701 146.815-84.044 230.677-17.574 66.351 19.344 62.175 117.087 61.908 125.01 36.375 24.006 48.002 71.399 30.062 118.715z" fill="url(#SVGID_1_)"/><path d="m279.521 422.739c-.039 0-.078-.002-.117-.005l-102.739-8.059c-13.834-.561-26.837-2.262-38.593-5.053-.306-.062-.591-.216-.807-.446-4.979-5.341-8.931-11.057-11.833-17.106 1.489 4.287 3.782 8.902 7.291 13.374.401.511.427 1.223.065 1.762-.362.541-1.033.786-1.656.606-15.62-4.447-29.254-11.036-40.522-19.581-.305-.23-.509-.569-.573-.946-.145-.855-.278-1.717-.402-2.586-.097.448-.396.835-.821 1.037-.527.25-1.153.173-1.602-.199-25.792-21.382-32.616-48.729-33.8-67.904-1.874-30.372 9.15-62.184 28.771-83.02.29-.307.437-.924.591-1.577.072-.304.146-.614.239-.93-6.752-23.655-10.801-70.635 36.136-122.622 17.976-18.979 53.645-42.111 99.914-50.199 34.281-5.995 85.082-5.249 132.579 32.272 27.857 8.235 46.843 30.713 56.436 66.815 6.325 23.806 6.681 46.83 6.297 58.767 17.734 11.947 29.94 29.575 35.326 51.033 5.412 21.563 3.548 45.422-5.39 68.995-.27.712-1.029 1.105-1.769.923-.738-.187-1.22-.896-1.121-1.65 3.925-29.88.399-49.593-3.318-60.964 6.933 41.355-5.422 80.393-34.002 105.959-.513.459-1.275.51-1.844.122-.57-.389-.802-1.115-.562-1.762 2.881-7.773 5.784-18.637 6.151-31.434-3.15 17.609-10.239 32.4-16.45 42.689-.115.19-.272.354-.458.477-6.915 4.562-14.512 8.485-22.581 11.661-.6.235-1.282.063-1.696-.429s-.469-1.194-.136-1.744c1.786-2.946 4.261-7.268 6.428-11.906-4.295 6.703-8.159 12.21-11.036 16.146-.183.251-.439.438-.733.537-6.058 2.037-12.505 3.726-19.164 5.018l-11.709 2.235c-.594.11-1.197-.141-1.531-.645s-.333-1.159.002-1.661c2.955-4.43 6.376-10.208 9.363-16.937-5.551 8.803-11.918 15.799-17.197 20.801-.222.21-.502.347-.803.394l-40.342 7.714c-.094.019-.188.028-.282.028zm-140.375-15.945c11.469 2.693 24.149 4.338 37.696 4.888l102.595 8.047 39.765-7.604c8.404-8.026 19.494-21.145 25.316-38.534.25-.747 1.034-1.17 1.797-.976.763.196 1.243.95 1.1 1.724-2.606 14.137-8.83 26.484-14.224 35.104l8.26-1.577c6.359-1.233 12.522-2.836 18.323-4.764 4.379-6.016 10.93-15.519 17.777-27.259.366-.627 1.126-.902 1.811-.653.682.25 1.087.952.962 1.668-1.211 6.926-5.179 15.164-8.964 21.841 6.245-2.717 12.161-5.897 17.639-9.487 8.086-13.471 17.606-34.672 17.501-59.689-.003-.779.592-1.432 1.369-1.5.774-.063 1.477.47 1.609 1.238 3.153 18.237.488 34.254-3.031 45.812 26.822-26.988 36.784-67.272 26.653-109.053-.512-2.119-.863-3.292-.867-3.304-.209-.693.108-1.438.752-1.768.646-.33 1.433-.154 1.874.423.614.801 13.676 18.427 10.93 61.293 10.9-42.012-1.849-82.423-33.771-103.488-.436-.287-.69-.781-.673-1.303l.01-.304c.405-11.608.141-34.635-6.181-58.426-9.336-35.139-27.726-56.937-54.658-64.788-.186-.055-.36-.145-.512-.265-85.627-67.87-191.174-22.137-228.654 17.431-46.238 51.214-41.982 97.293-35.328 120.2.09.312.078.644-.037.947-.115.306-.202.672-.294 1.06-.229.965-.488 2.058-1.331 2.946-19.067 20.249-29.781 51.201-27.956 80.774 1.109 17.969 7.324 43.336 30.299 63.704.272-8.446 1.83-14.442 1.904-14.723.194-.733.904-1.197 1.656-1.104.751.104 1.307.753 1.294 1.512-.112 6.69.338 13.201 1.337 19.361 9.857 7.381 21.568 13.246 34.869 17.469-9.77-15.032-7.915-30.002-7.824-30.681.1-.746.735-1.302 1.487-1.302h.007c.754.004 1.389.566 1.482 1.315 1.564 12.586 6.875 23.645 16.231 33.795z" fill="#231f20"/></g><g><path d="m411.061 469.202h-270.526c16.209-60.5 38.706-68.43 76.926-88.7v-.01c4.11-2.17 8.41-4.49 12.89-7.03 25.72-14.56 66.76-16.83 90.21-4.24 2.85 1.52 5.69 3.08 8.54 4.65.05.02.1.05.15.08 10.65 5.87 21.31 12.05 32.02 18.65 18.64 11.49 27.83 21.2 36.51 36.77 8.5 15.26 11.75 29.11 13.28 39.83z" fill="url(#SVGID_00000034050709482351024020000000092649680015223189_)"/><path d="m412.791 470.702h-274.21l.506-1.889c15.267-56.983 35.88-67.763 70.029-85.62 2.224-1.163 4.505-2.356 6.846-3.595v-.001l.8-.432c4.847-2.56 8.93-4.786 12.85-7.009 26.729-15.132 67.848-17.04 91.66-4.257 2.835 1.513 5.665 3.065 8.503 4.63.083.039.166.085.248.135 11.17 6.155 21.664 12.268 32.037 18.659 18.256 11.254 27.947 21.02 37.033 37.317 6.963 12.5 11.364 25.698 13.455 40.349zm-270.294-3h266.823c-2.13-13.6-6.341-25.916-12.85-37.601-8.804-15.793-18.222-25.272-35.986-36.223-10.331-6.366-20.784-12.455-31.957-18.613-.025-.016-.026-.017-.006-.01l-.144-.07c-2.843-1.566-5.678-3.123-8.521-4.641-22.622-12.146-63.271-10.21-88.766 4.223-3.753 2.128-7.654 4.26-12.222 6.678l-.704.382c-2.626 1.393-5.178 2.727-7.658 4.024-33.041 17.279-53.133 27.788-68.009 81.851z" fill="#231f20"/></g><g><path d="m315.734 374.82c-1.73 29.55-26.23 52.97-56.21 52.97-27.7 0-50.72-20-55.43-46.34v-.01c4.11-2.17 8.41-4.49 12.89-7.03 25.72-14.56 66.76-16.83 90.21-4.24 2.85 1.52 5.69 3.08 8.54 4.65z" fill="url(#SVGID_00000179610508783183167500000016932564523371716013_)"/><path d="m259.524 429.29c-28.044 0-51.978-20.009-56.907-47.576l-.023-.264v-.904l.8-.433c4.861-2.566 8.945-4.793 12.851-7.008 26.728-15.133 67.846-17.043 91.659-4.257 2.85 1.52 5.673 3.07 8.554 4.658l.829.456-.055.945c-1.786 30.495-27.134 54.383-57.708 54.383zm-53.753-47.041c5.091 25.585 27.525 44.041 53.753 44.041 28.672 0 52.497-22.156 54.649-50.617-2.583-1.422-5.124-2.813-7.685-4.18-22.623-12.146-63.271-10.21-88.766 4.223-3.666 2.079-7.487 4.168-11.951 6.533z" fill="#231f20"/></g><g><path d="m184.676 433.162 22.1-47.62 29.57-14.686-24.463 62.091 77.126 3.368 27.229-69.396 30.453 16.932 5.903 85.351h-171.263z" fill="#8b5e3c"/><path d="m354.201 470.702h-174.515l3.521-37.937.109-.235 22.322-48.098 33.533-16.654-25.121 63.761 73.955 3.23 27.463-69.995 32.664 18.161zm-171.224-3h168.01l-5.736-82.937-28.243-15.702-26.994 68.796-1.07-.046-79.227-3.46 23.804-60.419-25.606 12.717-21.769 46.907z" fill="#231f20"/></g><path d="m194.966 445.932c-3.855 0-7.495-1.204-9.701-4.017-2.25-2.868-2.372-6.438-2.078-8.929l2.979.352c-.228 1.93-.16 4.662 1.459 6.726 3.362 4.284 11.321 3.159 15.775.698 4.194-2.319 6.242-6.239 7.089-8.37l2.788 1.109c-.996 2.503-3.414 7.115-8.426 9.886-2.901 1.603-6.477 2.545-9.885 2.545z" fill="#231f20"/><path d="m303.355 451.647c-3.123 0-6.318-1.081-9.027-3.096-3.708-2.758-6.179-7.025-6.78-11.706l2.976-.383c.505 3.936 2.493 7.374 5.595 9.682 2.683 1.995 5.922 2.859 8.885 2.37 5.062-.836 9.196-5.435 10.056-11.185l2.967.443c-1.049 7.022-6.203 12.656-12.534 13.7-.704.119-1.419.175-2.138.175z" fill="#231f20"/><g><circle cx="198.227" cy="431.606" fill="#fff" r="7.532"/><path d="m198.227 439.639c-4.429 0-8.032-3.604-8.032-8.032s3.603-8.032 8.032-8.032 8.032 3.604 8.032 8.032-3.603 8.032-8.032 8.032zm0-15.065c-3.877 0-7.032 3.154-7.032 7.032s3.154 7.032 7.032 7.032 7.032-3.154 7.032-7.032-3.155-7.032-7.032-7.032z" fill="#231f20"/></g><g><circle cx="302.79" cy="437.995" fill="#fff" r="7.532"/><path d="m302.79 446.026c-4.429 0-8.032-3.604-8.032-8.032s3.603-8.031 8.032-8.031 8.032 3.603 8.032 8.031-3.603 8.032-8.032 8.032zm0-15.063c-3.877 0-7.032 3.154-7.032 7.031 0 3.878 3.155 7.032 7.032 7.032s7.032-3.154 7.032-7.032c0-3.877-3.155-7.031-7.032-7.031z" fill="#231f20"/></g><g><path d="m313.996 331.647-5.489 38.011c-.775 5.367-3.268 10.366-7.204 14.094-5.854 5.545-15.797 11.94-29.701 10.535-23.752-2.399-22.806-26.533-22.806-26.533l4.441-33.959z" fill="url(#SVGID_00000147935306699343369520000000711196111010065590_)"/><path d="m309.992 369.873 5.742-39.761c.002-.014-.009-.026-.023-.026l-63.777 2.255c-.011 0-.02.009-.022.02l-4.411 33.734c-.107.821.47 1.573 1.291 1.682.822.109 1.576-.47 1.684-1.292l4.082-31.216c.001-.011.011-.019.022-.02l57.649-2.038c.014 0 .025.012.023.026l-5.228 36.207c-.048.331-.105.659-.169.984-.15.759.294 1.513 1.039 1.72.009.003.019.005.028.008.818.227 1.67-.266 1.852-1.095.087-.397.161-.794.218-1.188z" fill="#231f20"/></g><g><path d="m98.387 213.993s.958 76.934-26.718 130.251c17.486 11.083 59.101 17.098 59.101 17.098l19.903-146.38z" fill="url(#SVGID_00000135654611073616627990000016691952769323219338_)"/><path d="m130.77 362.842c-.071 0-.143-.005-.214-.016-1.712-.247-42.135-6.189-59.69-17.315-.658-.416-.887-1.267-.529-1.958 27.181-52.361 26.56-128.775 26.55-129.541-.005-.406.155-.796.442-1.082.289-.286.683-.438 1.085-.437l52.287.969c.428.008.833.198 1.111.523s.405.754.347 1.179l-19.903 146.38c-.054.396-.264.755-.583.995-.261.197-.579.303-.903.303zm-57.13-19.154c15.691 9.188 48.468 14.77 55.85 15.938l19.471-143.196-49.073-.909c-.065 11.103-1.495 79.372-26.248 128.167z" fill="#231f20"/></g><g><path d="m244.948 393.561c-51.721 6.516-99.011-11.75-126.147-42.307-8.113-9.122-14.431-19.339-18.52-30.325-2.683-7.175-4.415-14.679-5.091-22.416-.872-10.004.081-19.843 2.649-29.324 3.946-14.59 3.401-29.825 3.999-44.932 6.906-173.714 251.707-178.178 277.915-29.909 15.968 90.372-2.693 182.545-134.805 199.213z" fill="url(#SVGID_00000090266090785565334790000012983658809978577807_)"/><path d="m100.611 282.137c-11.505 17.309-2.956 43.221 19.094 57.877s49.251 12.505 60.755-4.804 2.956-43.221-19.094-57.877-49.251-12.504-60.755 4.804z" fill="url(#SVGID_00000174579874825852892810000014240632923133983622_)"/><path d="m221.033 396.349c-67.181-1.245-122.63-43.393-127.341-97.704-.865-9.983.041-20.025 2.696-29.846 3.099-11.469 3.396-23.636 3.684-35.404.073-3.015.15-6.133.272-9.201 1.613-40.627 16.486-75.117 43.011-99.74 23.448-21.766 55.337-35.038 89.791-37.372 33.956-2.3 67.266 6.09 93.797 23.622 29.294 19.358 48.065 48.189 54.283 83.378 8.556 48.415 5.736 89.028-8.381 120.713-17.356 38.954-51.882 64.493-102.619 75.907-.811.183-1.611-.326-1.793-1.134s.326-1.611 1.134-1.793c91.159-20.508 127.733-85.501 108.705-193.171-13.719-77.633-84.745-108.601-144.923-104.529-62.226 4.214-126.558 47.355-130.008 134.237-.121 3.045-.197 6.151-.27 9.155-.292 11.945-.593 24.296-3.786 36.113-2.562 9.482-3.438 19.173-2.603 28.805 4.698 54.168 61.614 95.874 129.589 94.977.823.009 1.509.652 1.52 1.48.012.828-.651 1.509-1.48 1.52-1.767.024-3.528.02-5.278-.013z" fill="#231f20"/><g><g><path d="m404.438 257.7c-31.041-19.886-48.756 12.789-48.756 12.789-2.41 2.875-6.939 9.075-8.715 18.217-2.211 11.381 1.181 20.442 2.658 23.843 1.136 2.801 3.847 8.547 9.919 12.7 4.665 3.191 11.322 5.518 20.657 4.72 35.03-2.414 55.278-52.383 24.237-72.269z" fill="url(#SVGID_00000132801996262052733780000017915722510829493160_)"/><path d="m375.849 331.622c-21.768-.403-27.597-18.436-27.657-18.63-.244-.792.199-1.631.991-1.876.79-.245 1.631.199 1.875.991.234.747 6.023 18.328 29.015 16.369 19.954-1.376 33.109-17.944 36.898-32.756 3.882-15.176-1.106-28.917-13.343-36.757-8.738-5.597-17.187-7.405-25.113-5.369-13.708 3.519-21.439 17.471-21.516 17.611-.396.727-1.306.996-2.034.602-.727-.395-.997-1.304-.603-2.033.336-.619 8.4-15.221 23.382-19.08 8.774-2.259 18.027-.328 27.501 5.743 13.381 8.572 18.85 23.535 14.631 40.026-4.949 19.344-21.222 33.738-39.574 35.003-1.552.133-3.037.182-4.453.156z" fill="#231f20"/></g><g><g><path d="m372.63 281.862c-.833 4.107.232 6.229-1.352 9.694-1.063 2.327-4.038 5.528-10.403 6.814-2.461 24.183 21.74 24.364 33.273 16.557 8.709-5.895 12.086-19.419 11.278-29.819-.207-1.643-.721-5.93-3.576-9.153-2.878-3.249-5.759-4.344-8.365-5.092-3.523-1.011-10.61-2.067-15.399 1.311-4.073 2.873-5.153 8.194-5.456 9.688z" fill="url(#SVGID_00000020364752953977457460000002061008239493992892_)"/></g><path d="m360.838 299.242c-.016 0-.027-.001-.034-.001-.552-.018-.985-.479-.968-1.031.018-.552.469-.982 1.029-.968.074.014 4.448.064 7.566-3.203 2.517-2.637 3.594-6.709 3.202-12.105-.311-4.272 1.476-7.929 5.031-10.297 5.343-3.559 13.98-3.736 20.538-.419 5.664 2.864 8.94 7.78 9.225 13.844.026.552-.4 1.02-.952 1.046-.564.02-1.021-.4-1.046-.952-.249-5.312-3.136-9.628-8.129-12.153-5.955-3.01-13.746-2.885-18.526.299-2.072 1.38-4.473 3.973-4.145 8.488.436 5.997-.834 10.591-3.773 13.654-3.646 3.796-8.524 3.807-9.018 3.798z" fill="#231f20"/></g></g></g><path d="m368.117 307.056c3.891 20.416-21.357 42.38-56.394 49.057-35.037 6.678-66.594-4.459-70.485-24.875s21.357-42.38 56.394-49.057 66.594 4.459 70.485 24.875z" fill="url(#SVGID_00000021821838755832964870000001180650702221736836_)"/><g><g><path d="m374.656 170.46c-1.237-3.752-20.384-62.355-76.107-76.716-40.228-10.368-84.529 9.395-111.863 42.131-5.184 7.071-10.688 15.961-15.195 26.796-7.091 17.044-13.168 41.381-9.113 70.551 7.725 1.433 19.897 3.029 34.3 4.656-.414-17.051 1.157-46.777 13.974-74.014-9.043 32.438-8.282 59.927-6.717 74.808 6.119.663 12.547 1.333 19.126 1.995-.655-5.123-.918-12.519 1.584-18.574-1.251 7.038.713 14.436 2.339 18.957 16.143 1.589 33.048 3.123 48.585 4.481-13.886-24.621-7.856-60.186-7.856-60.186 1.065 33.766 9.614 51.697 17.043 60.986 28.829 2.475 50.951 4.175 50.951 4.175s-5.27 46.88 1.531 64.74c2.254-9.39 5.283-23.336 7.153-37.314-.959 24.246-4.606 41.862-4.606 41.862-2.419 28-13.047 56.388-13.047 56.388l52.346-3.631c-.001-.001 23.626-136.2-4.428-202.091z" fill="#feadbc"/><path d="m326.709 377.681c-.461-.009-.896-.229-1.175-.603-.305-.409-.382-.945-.203-1.422.106-.282 10.585-28.528 12.958-55.991.005-.059.014-.117.026-.175.015-.073.639-3.129 1.433-8.375-.365 1.59-.717 3.088-1.052 4.481-.153.639-.706 1.104-1.363 1.147-.655.044-1.264-.349-1.498-.963-6.231-16.362-2.648-55.492-1.784-63.897-5.512-.429-25.205-1.978-49.425-4.057-.41-.035-.786-.237-1.043-.558-5.724-7.158-12.448-19.821-15.631-41.512.191 11.874 2.074 26.896 8.922 39.038.274.485.256 1.081-.045 1.549-.301.469-.827.739-1.392.682-18.466-1.614-34.363-3.081-48.601-4.483-.577-.057-1.069-.44-1.265-.985-.46-1.278-.924-2.716-1.341-4.27.079 1.13.19 2.203.316 3.189.058.453-.094.909-.413 1.237-.319.327-.769.492-1.225.446-6.766-.681-13.205-1.353-19.138-1.996-.702-.076-1.256-.632-1.33-1.334-1.125-10.705-2.013-29.978 1.918-53.537-5.81 20.85-6.467 40.834-6.182 52.549.011.433-.167.851-.487 1.143-.32.293-.752.435-1.181.384-15.658-1.769-27.234-3.341-34.405-4.672-.635-.118-1.123-.628-1.212-1.268-8.108-58.322 24.311-98.117 24.64-98.512.53-.637 1.475-.724 2.112-.195s.725 1.475.196 2.112c-.318.383-31.499 38.729-24.121 95.107 6.887 1.227 17.444 2.656 31.426 4.253-.245-16.303 1.43-45.937 14.15-72.969.331-.705 1.149-1.038 1.88-.768.73.272 1.131 1.058.922 1.809-8.885 31.873-8.156 59.01-6.792 73.045 5.04.544 10.428 1.106 16.059 1.676-.493-5.148-.436-11.827 1.896-17.468.292-.708 1.073-1.083 1.806-.867.735.214 1.191.948 1.057 1.702-1.094 6.159.386 12.657 1.962 17.295 13.267 1.302 27.981 2.661 44.864 4.145-12.302-24.582-6.956-57.276-6.714-58.701.129-.76.808-1.299 1.581-1.246.769.052 1.372.679 1.397 1.449 1.044 33.096 9.358 50.635 16.319 59.595 28.181 2.416 50.071 4.101 50.291 4.118.406.031.781.226 1.04.539.26.314.38.72.335 1.124-.047.423-4.254 38.574-.098 58.562 1.996-8.81 4.286-20.149 5.804-31.503.106-.794.818-1.365 1.616-1.295.798.069 1.401.753 1.369 1.554-.918 23.209-4.336 40.614-4.618 42.016-2.037 23.408-9.847 47.313-12.352 54.518l48.868-3.389c2.073-13.43 20.295-137.995-5.892-199.501-.324-.762.03-1.643.792-1.968.764-.323 1.644.031 1.968.792 27.902 65.534 6.131 200.973 5.907 202.333-.112.686-.682 1.205-1.376 1.254l-52.346 3.63c-.042.006-.086.007-.13.007zm52.374-5.131h.01z" fill="#231f20"/></g><path d="m344.393 279.432c-.055 0-.11-.003-.166-.009-.823-.091-1.417-.832-1.327-1.655 4.518-41.053-6.536-78.06-6.648-78.429-.241-.793.206-1.631.999-1.871.792-.244 1.63.205 1.872.998.114.374 11.347 37.943 6.76 79.63-.086.767-.736 1.336-1.49 1.336z" fill="#231f20"/><g><path d="m218.769 87.407c-13.543 1.892-47.637 7.112-78.143 33.703-43.912 38.278-47.686 92.335-48.231 103.862l49.622 3.757c-1.607-61.317 45.822-91.896 45.822-91.896l110.662-40.506c-14.221-5.322-43.32-14.008-79.732-8.92z" fill="#feadbc"/><path d="m90.896 224.907c-.038.811.576 1.499 1.386 1.56l49.622 3.757c.028.002.057.003.085.004.393.007.775-.14 1.062-.413.307-.293.476-.702.465-1.126-1.565-59.721 44.669-90.294 45.136-90.596.696-.45.896-1.378.447-2.074-.45-.695-1.379-.896-2.073-.448-.493.318-12.213 7.964-23.894 23.306-10.594 13.914-23.017 36.966-22.646 68.23l-46.516-3.522c1.024-17.661 6.665-56.059 34.742-88.398.63-.726.424-1.842-.423-2.296-.009-.005-.018-.01-.027-.015-.606-.324-1.368-.171-1.819.349-29.485 33.966-34.733 74.424-35.547 91.682z" fill="#231f20"/></g><g fill="#231f20"><path d="m369.203 373.867c-.076 0-.152-.006-.229-.018-.819-.126-1.381-.892-1.255-1.71 15.999-104.205 2.924-146.457 2.79-146.872-.255-.787.177-1.633.965-1.889.786-.254 1.633.175 1.889.963.557 1.714 13.453 43.18-2.679 148.253-.114.743-.753 1.273-1.481 1.273z"/><path d="m351.636 375.584c-.112 0-.226-.013-.339-.038-.807-.187-1.311-.992-1.124-1.8 14.748-63.862 10.406-101.408 10.361-101.78-.101-.821.484-1.57 1.306-1.671.826-.108 1.57.482 1.672 1.305.046.377 4.465 38.385-10.416 102.822-.16.693-.778 1.162-1.46 1.162z"/></g></g><g fill="#231f20"><path d="m237.286 260.169s-1.496 5.889 4.446 6.846c5.941.957 38.481-12.716 71.013-53.022 2.581-3.908 3.571-14.094-2.897-7.926-51.053 48.687-72.404 45.745-72.562 54.102z"/><path d="m157.484 252.929s.231 6.072-5.779 5.765-19.324-7.773-42.705-53.992c-1.706-4.362-.087-9.338 4.821-1.869 27.128 41.284 45.256 41.892 43.663 50.096z"/><path d="m310.343 284.818c-6.622.716-44.985 2.535-63.163 15.31-2.542 1.786-8.915 2.248-13.234-2.901-4.315-5.191 24.157-32.264 46.82-44.385 2.187-.567 5.066 1.067 7.61 3.047l-7.437 6.574 9.495-4.818c2.124 1.933 3.67 3.718 3.67 3.718s-15.514 6.237-26.433 18.588c13.025-5.236 27.277-9.658 30.3-9.326 1.217.134 3.009 1.224 4.853 2.998-2.444.198-7.107.875-12.63 3.581 6.556-1.275 11.877-1.369 14.797-1.26 2.029 2.39 3.982 5.494 5.352 8.874z"/><path d="m100.812 272.384c5.391 1.651 34.345 12.096 50.185 23.535 2.315 1.672 7.07 3.401 11.404-.676 4.336-4.116-15.348-33.24-32.389-47.767-1.732-.848-4.359.219-6.758 1.654l5.214 7.15-7.178-5.848c-2.044 1.456-3.586 2.861-3.586 2.861s11.966 8.054 19.228 21.029c-10.046-6.762-21.229-12.96-23.785-13.108-1.03-.06-2.675.671-4.464 2.023 1.999.549 5.77 1.87 9.959 5.183-5.254-2.155-9.656-3.04-12.095-3.378-2.034 1.89-4.106 4.445-5.735 7.342z"/></g><g><path d="m373.207 407.17s-26.516-23.319-50.231-13.242c-16.553 7.034-31.679 75.274-31.679 75.274h105.532l-4.766-17.908" fill="url(#SVGID_00000017494313886078999310000015181470947217195199_)"/><path d="m396.83 470.702h-105.532c-.455 0-.885-.206-1.17-.562-.285-.354-.393-.819-.294-1.263.625-2.817 15.489-69.078 32.557-76.33 24.304-10.324 50.696 12.518 51.808 13.496.622.547.683 1.494.136 2.116-.547.621-1.493.683-2.117.137-.258-.228-26.1-22.579-48.653-12.987-12.592 5.35-25.798 52.406-30.389 72.393h101.704l-4.264-16.022c-.213-.801.263-1.622 1.064-1.835.803-.219 1.622.264 1.835 1.063l4.766 17.908c.12.45.023.931-.26 1.3-.286.369-.726.586-1.191.586z" fill="#231f20"/></g><g><path d="m218.787 326.404s-30.563-11.11-59.196-7.257-43.442 27.513-23.697 40.959 49.872 5.957 58.553-2.723c8.681-8.681 15.489-25.872 24.34-30.979z" fill="#fa8179"/><path d="m162.13 368.896c-9.39 0-19.101-2.115-27.081-7.55-7.75-5.279-11.016-12.428-9.196-20.129 2.737-11.581 16.528-21.269 33.537-23.557 28.669-3.861 59.6 7.221 59.909 7.333.548.199.931.698.981 1.279s-.239 1.139-.745 1.43c-4.745 2.737-9.144 9.619-13.399 16.274-3.342 5.229-6.798 10.634-10.63 14.466-5.555 5.558-19.093 10.454-33.376 10.454zm10.087-49.054c-4.124 0-8.3.237-12.426.792-15.806 2.127-28.561 10.875-31.018 21.273-1.514 6.407 1.314 12.43 7.965 16.959 18.914 12.882 48.056 6.048 56.648-2.544 3.601-3.602 6.968-8.867 10.224-13.96 3.9-6.101 7.619-11.917 11.887-15.468-6.666-2.096-24.417-7.052-43.28-7.052z" fill="#231f20"/></g><path d="m153.935 339.234c-.182 0-.366-.05-.532-.154-.467-.294-.608-.911-.313-1.379.117-.185 11.988-18.508 40.676-18.508.552 0 1 .447 1 1s-.448 1-1 1c-27.597 0-38.873 17.398-38.984 17.574-.19.302-.515.467-.847.467z" fill="#231f20"/><g fill="#feadbc"><path d="m60.61 83.811c-4.904.858-9.269 3.391-12.376 7.163-4.13-2.343-8.975-3.174-13.733-2.342-5.327.931-9.987 3.816-13.123 8.126-3.142 4.319-4.375 9.545-3.471 14.714 1.118 6.385 5.33 11.695 11.34 14.38-1.235 3.238-1.576 6.72-.979 10.127 1.866 10.674 12.343 17.781 23.359 15.858 6.003-1.052 11.101-4.55 14.135-9.662l5.322 3.509c.403.267.946.165 1.227-.231l13.76-19.421c.141-.197.195-.445.15-.684-.045-.24-.184-.451-.39-.583l-9.413-6.206c5.851-4.481 8.797-11.754 7.549-18.89-.33-1.884-.927-3.655-1.75-5.289-3.832-7.61-12.538-12.153-21.607-10.569z"/><path d="m482.488 185.545c4.401-1.783 8.06-5.065 10.362-9.311 2.577-4.754 3.209-10.198 1.777-15.332-1.435-5.144-4.767-9.355-9.38-11.856-5.699-3.088-12.478-3.082-18.314-.037-1.772-2.979-4.29-5.407-7.331-7.055-9.526-5.164-21.603-1.363-26.934 8.467-2.902 5.359-3.325 11.527-1.201 17.079l-6.056 1.994c-.46.15-.716.639-.58 1.106l6.683 22.844c.067.233.227.429.443.542s.468.135.699.057l10.709-3.526c-.12 7.369 3.753 14.194 10.122 17.646 1.682.911 3.441 1.542 5.233 1.911 8.344 1.719 17.311-2.285 21.699-10.379 2.372-4.378 3.097-9.372 2.069-14.15z"/><path d="m423.368 59.333c4.964-4.323 7.441-10.633 6.645-17.066-.645-5.208-3.351-9.846-7.618-13.059-4.258-3.206-9.558-4.604-14.924-3.938-4.793.595-9.184 2.805-12.449 6.252-4.074-2.7-8.989-3.847-13.929-3.235-9.136 1.134-16.135 8.022-17.578 16.419-.31 1.803-.364 3.671-.129 5.569.891 7.189 5.834 13.285 12.738 15.861l-7.189 8.685c-.158.187-.229.429-.202.672s.151.463.343.611l18.833 14.554c.384.297.933.236 1.241-.137l4.065-4.911c4.394 4.002 10.292 5.859 16.34 5.111 11.097-1.378 19.041-11.236 17.707-21.99-.424-3.431-1.767-6.662-3.894-9.398z"/></g></svg>
